<?xml version="1.0" encoding="UTF-8"?>
<svg width="200px" height="221px" viewBox="0 0 200 221" version="1.1" xmlns="http://www.w3.org/2000/svg" xmlns:xlink="http://www.w3.org/1999/xlink">
    <title>分组 4</title>
    <defs>
        <path d="M0.144761905,0 L63.6466667,0 C71.077619,0 77.1014286,6.01215054 77.1014286,13.4285303 C77.1014286,20.8449101 71.077619,26.8571082 63.6466667,26.8571082 L16.8114286,26.8571082 C7.60666667,26.8571082 0.144761905,19.4095983 0.144761905,10.2226996 L0.144761905,0 Z" id="path-1"></path>
        <path d="M0.144761905,0.449033978 L40.8133333,0.449033978 C45.9671429,0.449033978 50.1447619,4.61875742 50.1447619,9.76235419 C50.1447619,14.9059985 45.9671429,19.0757219 40.8133333,19.0757219 L16.8114286,19.0757219 C7.60666667,19.0757219 0.144761905,11.628212 0.144761905,2.44131333 L0.144761905,0.449033978 Z" id="path-3"></path>
        <path d="M13.6614286,0.26657828 L63.2504762,0.26657828 L63.2504762,10.4892778 C63.2504762,19.6762241 55.7885714,27.1236865 46.5838095,27.1236865 L13.6614286,27.1236865 C6.23095238,27.1236865 0.207142857,21.1115359 0.207142857,13.6951561 C0.207142857,6.27877634 6.23095238,0.26657828 13.6614286,0.26657828 Z" id="path-5"></path>
        <path d="M1.73666667,0.150850323 L41.7414286,0.150850323 C42.4604762,0.150850323 43.0433333,0.732674409 43.0433333,1.45037785 C43.0433333,2.16808129 42.4604762,2.74990538 41.7414286,2.74990538 L1.73666667,2.74990538 C1.01761905,2.74990538 0.434761905,2.16808129 0.434761905,1.45037785 C0.434761905,0.732674409 1.01761905,0.150850323 1.73666667,0.150850323 Z" id="path-7"></path>
        <path d="M1.61238095,0.375319785 L33.3561905,0.375319785 C34.0752381,0.375319785 34.6585714,0.957143871 34.6585714,1.67489484 C34.6585714,2.39259828 34.0752381,2.97442237 33.3561905,2.97442237 L1.61238095,2.97442237 C0.893333333,2.97442237 0.31047619,2.39259828 0.31047619,1.67489484 C0.31047619,0.957143871 0.893333333,0.375319785 1.61238095,0.375319785 Z" id="path-9"></path>
        <path d="M1.73666667,0.301653118 L33.9152381,0.301653118 C34.6342857,0.301653118 35.217619,0.883477204 35.217619,1.60118065 C35.217619,2.31893161 34.6342857,2.90070817 33.9152381,2.90070817 L1.73666667,2.90070817 C1.01761905,2.90070817 0.434761905,2.31893161 0.434761905,1.60118065 C0.434761905,0.883477204 1.01761905,0.301653118 1.73666667,0.301653118 Z" id="path-11"></path>
        <path d="M1.59190476,0.166676774 L24.2052381,0.166676774 C24.9242857,0.166676774 25.5071429,0.74850086 25.5071429,1.4662043 C25.5071429,2.18390774 24.9242857,2.76573183 24.2052381,2.76573183 L1.59190476,2.76573183 C0.872857143,2.76573183 0.29,2.18390774 0.29,1.4662043 C0.29,0.74850086 0.872857143,0.166676774 1.59190476,0.166676774 Z" id="path-13"></path>
        <path d="M1.61238095,0.0930101075 L27.2695238,0.0930101075 C27.9885714,0.0930101075 28.5714286,0.674786667 28.5714286,1.39253763 C28.5714286,2.11024108 27.9885714,2.69206516 27.2695238,2.69206516 L1.61238095,2.69206516 C0.893333333,2.69206516 0.31047619,2.11024108 0.31047619,1.39253763 C0.31047619,0.674786667 0.893333333,0.0930101075 1.61238095,0.0930101075 Z" id="path-15"></path>
        <path d="M67.9752381,1.80112624 C84.2909524,-4.04268409 186.072857,8.47447075 193.647619,24.7583211 C201.222381,41.0422189 178.498095,42.3408434 186.072857,52.5429163 C193.647619,62.7449892 208.50381,74.2796684 193.647619,88.041077 C178.791429,101.802486 112.460476,98.1989499 101.600952,98.1989499 C90.7409524,98.1989499 48.1280952,104.355582 38.2780952,98.1989499 C28.427619,92.0423652 24.0809524,98.0289938 8.22,88.041077 C-7.6407619,78.0532077 0.420380952,36.5582002 24.0809524,28.263286 C47.7409524,19.9683718 51.6590476,7.64498409 67.9752381,1.80112624 Z" id="path-17"></path>
        <path d="M25.3357143,5.67323634 C31.3909524,5.67323634 34.1785714,6.79952839 44.3909524,4.88823484 C54.6033333,2.97698882 65.1090476,17.8837002 62.5504762,22.2641103 C59.9914286,26.6445204 57.5709524,24.5665976 50.9057143,24.5665976 C44.2404762,24.5665976 48.7919048,28.1674243 34.8304762,28.1674243 C20.8690476,28.1674243 -2.78857143,4.87345398 0.500952381,1.09616 C3.79047619,-2.68113398 19.2804762,5.67323634 25.3357143,5.67323634 Z" id="path-19"></path>
        <path d="M9.5147619,2.71383247 L15.44,4.95719634 C15.7547619,6.40324925 15.9766667,7.36395763 16.1047619,7.83932151 C16.66,9.89942172 16.5990476,10.1405731 15.44,10.960792 C12.7757143,12.8458983 9.04,10.4312475 6.86095238,8.83244323 C4.68238095,7.2335914 -1.47047619,2.3703557 0.701904762,0.607536129 C2.15,-0.567661075 5.08761905,0.134406022 9.5147619,2.71383247 Z" id="path-21"></path>
        <path d="M9.65714286,2.83478839 L15.582381,5.07810473 C15.897619,6.52415763 16.1190476,7.48491355 16.2471429,7.96027742 C16.802381,10.0203301 16.7419048,10.2614815 15.582381,11.081748 C12.9185714,12.9668067 9.18285714,10.5522034 7.00380952,8.95335161 C4.8247619,7.35454731 -1.32761905,2.49126409 0.844761905,0.728492043 C2.29285714,-0.446752688 5.23047619,0.255361935 9.65714286,2.83478839 Z" id="path-23"></path>
        <path d="M26.5071429,0.344522366 C28.4742857,11.5137673 28.8747619,19.939523 27.7085714,25.621837 C27.2247619,27.9779346 27.0904762,32.5749247 26.5071429,38.0309632 C24.9809524,52.3124585 26.6490476,75.0587766 23.3961905,75.0587766 C22.5052381,75.0587766 18.3638095,75.6999617 17.7619048,73.7075398 C16.4961905,69.5178075 16.0261905,56.100446 16.0261905,49.8102632 C16.0261905,43.5200329 17.1609524,28.004217 16.0261905,28.004217 C15.4971429,28.004217 12.5361905,39.7635082 12.397619,49.4472054 C12.2166667,62.1124065 14.367619,78.8006155 12.397619,78.8006155 C8.92190476,78.8006155 3.77904762,80.3011342 3.77904762,75.0587766 C3.77904762,69.8164665 0.382380952,51.7786366 0.382380952,46.0558297 C0.382380952,42.2406092 1.3252381,30.42728 3.21047619,10.6158895 L26.5071429,0.344522366 Z" id="path-25"></path>
        <path d="M7.56619048,0.689900215 C10.4666667,-0.83751871 12.8195238,2.76739527 16.1280952,5.1365628 C17.1847619,5.89338086 17.7352381,7.61832151 17.7795238,10.3112897 C17.8114286,12.2627434 17.2609524,16.3337535 16.1280952,22.52432 L8.21714286,23.6099766 L6.7552381,17.8443955 C3.95666667,17.8443955 2.1952381,17.4226419 1.47190476,16.5791824 C0.748095238,15.7357228 1.11,13.5380323 2.55714286,9.9860157 C0.595714286,9.9860157 -0.202857143,9.49544323 0.16047619,8.51425075 C0.661904762,7.16049505 2.6252381,5.67304624 4.06380952,4.40369828 C5.24428571,3.36195656 6.25857143,1.37837462 7.56619048,0.689900215 Z" id="path-27"></path>
        <path d="M0.849047619,4.8639486 C-0.132857143,3.68979699 -0.318571429,0.0370234409 1.83095238,0.0370234409 C3.98095238,0.0370234409 17.4071429,6.63922022 17.4071429,12.4169206 C17.4071429,18.1946211 8.9447619,23.9001282 6.02761905,22.8361914 C3.11,21.7722546 9.11238095,17.2602901 7.56285714,15.6259832 C6.01333333,13.9916763 4.19857143,16.148874 4.19857143,15.0840817 C4.19857143,14.019337 6.02761905,12.3440144 6.02761905,10.1410009 C6.02761905,7.93798731 1.83095238,6.03810022 0.849047619,4.8639486 Z" id="path-29"></path>
        <path d="M35.6119048,5.86210817 C39.4342857,8.39524344 38.7047619,17.6418834 38.0452381,23.0571914 C37.3857143,28.4724994 37.0157143,40.7724088 38.0452381,42.1424662 C39.0742857,43.5125237 38.0452381,44.8001219 38.0452381,47.5873834 C38.0452381,50.3745974 31.987619,53.5421215 27.5052381,53.5421215 C23.0233333,53.5421215 12.9538095,55.7530245 11.9066667,50.7435011 C10.8590476,45.7339776 10.9180952,39.7699718 10.9180952,37.6793594 C10.9180952,35.5886994 12.8952381,19.9518325 11.9066667,18.0403488 C11.247619,16.7660581 7.37619048,13.9401097 0.291904762,9.56259871 L5.60714286,0.426316129 C10.0242857,4.05019333 13.4490476,5.86210817 15.882381,5.86210817 C19.532381,5.86210817 31.7895238,3.32902043 35.6119048,5.86210817 Z" id="path-31"></path>
        <path d="M25.8257143,32.0296013 L22.172381,39.7721105 C18.4961905,37.8121495 15.42,35.6771469 12.9438095,33.3671028 C9.22952381,29.9020604 6.6752381,17.8186834 6.13380952,16.2492508 C5.59285714,14.6798181 4.09666667,14.8346131 1.24380952,11.3509402 C-1.60904762,7.86721978 1.24380952,1.07396495 4.09666667,0.505828602 C6.94952381,-0.0622602151 4.09666667,6.09556022 5.43,7.14310022 C6.76333333,8.19064022 5.36619048,3.39565312 6.80619048,4.24205935 C8.24666667,5.08851312 8.90333333,11.6089637 9.59619048,13.9290834 C10.2885714,16.2492508 19.3247619,28.8373632 20.4795238,29.5863869 C21.2495238,30.0857043 23.0314286,30.9001249 25.8257143,32.0296013 Z" id="path-33"></path>
        <path d="M4.32857143,0.286682151 C4.84904762,0.406497419 5.17380952,0.924207742 5.05380952,1.44305871 L2.24380952,13.5688772 C2.12380952,14.0877282 1.60380952,14.4112437 1.08333333,14.2914759 C0.562380952,14.1716606 0.237619048,13.6539503 0.358095238,13.1350994 L3.16761905,1.00928086 C3.28809524,0.490429892 3.80761905,0.166914409 4.32857143,0.286682151 Z" id="path-35"></path>
        <path d="M4.23238095,0.316386452 C6.57714286,3.23453699 8.42952381,4.9641828 9.79,5.5053714 C11.1504762,6.04656 13.1080952,6.22630667 15.6628571,6.04456387 L12.1542857,12.9754566 C9.0452381,13.3897484 6.78285714,13.1540626 5.36714286,12.2683991 C3.95190476,11.3827357 2.2247619,9.72842 0.186190476,7.30540452 L4.23238095,0.316386452 Z" id="path-37"></path>
        <path d="M14.0880952,5.60432237 C12.5680952,6.12250796 11.3290476,6.79610645 10.3709524,7.62526043 C9.41285714,8.45436688 8.55714286,10.9543759 7.80428571,15.1252333 L0.331428571,10.5244953 C0.877142857,8.20256946 1.4847619,6.31570473 2.15380952,4.86385355 C2.82333333,3.41204989 4.70666667,1.83249398 7.80428571,0.125233333 L14.0880952,5.60432237 Z" id="path-39"></path>
        <path d="M13.9428571,5.89361849 C12.4228571,6.41175656 11.1842857,7.08540258 10.2261905,7.91455656 C9.26809524,8.74366301 8.41238095,11.2436245 7.65904762,15.4145295 L0.186190476,10.8137914 C0.731904762,8.49186559 1.33952381,6.60500086 2.00904762,5.15314968 C2.67857143,3.70134602 4.56190476,2.12179011 7.65904762,0.414529462 L13.9428571,5.89361849 Z" id="path-41"></path>
        <path d="M0.0866666667,4.77141376 C1.94047619,3.47611613 3.28714286,2.72652215 4.12666667,2.52267935 C4.96571429,2.31878903 6.29428571,1.59338624 8.11285714,0.346375914 C10.3119048,1.91462043 11.772381,3.30359355 12.4947619,4.51339032 C13.2171429,5.7231871 13.5133333,8.08156602 13.3838095,11.5885271 C12.322381,12.0405077 11.2090476,12.3657817 10.0438095,12.5643015 C8.87857143,12.7628688 7.38380952,13.6902133 5.55952381,15.3463351 C4.95238095,12.7460918 4.64857143,10.5627069 4.64857143,8.79622774 C4.64857143,7.02970108 3.12809524,5.68806473 0.0866666667,4.77141376 Z" id="path-43"></path>
    </defs>
    <g id="聊天" stroke="none" stroke-width="1" fill="none" fill-rule="evenodd">
        <g id="空页面" transform="translate(-545.000000, -221.000000)">
            <g id="分组-4" transform="translate(545.000000, 221.000000)">
                <g id="分组" transform="translate(23.333333, 0.000000)">
                    <mask id="mask-2" fill="white">
                        <use xlink:href="#path-1"></use>
                    </mask>
                    <g id="Clip-274"></g>
                    <polygon id="Fill-273" fill="#E4F5FE" mask="url(#mask-2)" points="-2.23619048 -2.37634409 79.482381 -2.37634409 79.482381 29.2334523 -2.23619048 29.2334523"></polygon>
                </g>
                <g id="分组" transform="translate(23.333333, 73.191398)">
                    <mask id="mask-4" fill="white">
                        <use xlink:href="#path-3"></use>
                    </mask>
                    <g id="Clip-276"></g>
                    <polygon id="Fill-275" fill="#E4F5FE" mask="url(#mask-4)" points="-2.23619048 -1.92731011 52.5257143 -1.92731011 52.5257143 21.452066 -2.23619048 21.452066"></polygon>
                </g>
                <g id="分组" transform="translate(37.619048, 36.120430)">
                    <mask id="mask-6" fill="white">
                        <use xlink:href="#path-5"></use>
                    </mask>
                    <g id="Clip-278"></g>
                    <polygon id="Fill-277" fill="#E4F5FE" mask="url(#mask-6)" points="-2.17380952 -2.10976581 65.6314286 -2.10976581 65.6314286 29.5000305 -2.17380952 29.5000305"></polygon>
                </g>
                <g id="分组" transform="translate(40.000000, 8.079570)">
                    <mask id="mask-8" fill="white">
                        <use xlink:href="#path-7"></use>
                    </mask>
                    <g id="Clip-280"></g>
                    <polygon id="Fill-279" fill="#D9ECF5" mask="url(#mask-8)" points="-1.94619048 -2.22549376 45.4242857 -2.22549376 45.4242857 5.12624946 -1.94619048 5.12624946"></polygon>
                </g>
                <g id="分组" transform="translate(51.428571, 44.675269)">
                    <mask id="mask-10" fill="white">
                        <use xlink:href="#path-9"></use>
                    </mask>
                    <g id="Clip-282"></g>
                    <polygon id="Fill-281" fill="#D9ECF5" mask="url(#mask-10)" points="-2.07047619 -2.0010243 37.0395238 -2.0010243 37.0395238 5.35076645 -2.07047619 5.35076645"></polygon>
                </g>
                <g id="分组" transform="translate(40.000000, 16.159140)">
                    <mask id="mask-12" fill="white">
                        <use xlink:href="#path-11"></use>
                    </mask>
                    <g id="Clip-284"></g>
                    <polygon id="Fill-283" fill="#D9ECF5" mask="url(#mask-12)" points="-1.94619048 -2.07469097 37.5985714 -2.07469097 37.5985714 5.27705226 -1.94619048 5.27705226"></polygon>
                </g>
                <g id="分组" transform="translate(36.666667, 81.270968)">
                    <mask id="mask-14" fill="white">
                        <use xlink:href="#path-13"></use>
                    </mask>
                    <g id="Clip-286"></g>
                    <polygon id="Fill-285" fill="#D9ECF5" mask="url(#mask-14)" points="-2.09095238 -2.20966731 27.8880952 -2.20966731 27.8880952 5.14207591 -2.09095238 5.14207591"></polygon>
                </g>
                <g id="分组" transform="translate(51.428571, 52.754839)">
                    <mask id="mask-16" fill="white">
                        <use xlink:href="#path-15"></use>
                    </mask>
                    <g id="Clip-288"></g>
                    <polygon id="Fill-287" fill="#D9ECF5" mask="url(#mask-16)" points="-2.07047619 -2.28333398 30.952381 -2.28333398 30.952381 5.06840925 -2.07047619 5.06840925"></polygon>
                </g>
                <g id="分组" transform="translate(0.000000, 119.767742)">
                    <mask id="mask-18" fill="white">
                        <use xlink:href="#path-17"></use>
                    </mask>
                    <g id="Clip-290"></g>
                    <polygon id="Fill-289" fill="#E4F5FE" mask="url(#mask-18)" points="-2.38095238 -2.03538624 202.380952 -2.03538624 202.380952 103.311559 -2.38095238 103.311559"></polygon>
                </g>
                <g id="分组" transform="translate(83.809524, 164.443011)">
                    <mask id="mask-20" fill="white">
                        <use xlink:href="#path-19"></use>
                    </mask>
                    <g id="Clip-292"></g>
                    <polygon id="Fill-291" fill="#D9ECF5" mask="url(#mask-20)" points="-2.19 -2.26066366 65.3209524 -2.26066366 65.3209524 30.5437684 -2.19 30.5437684"></polygon>
                </g>
                <g id="分组" transform="translate(111.428571, 176.800000)">
                    <mask id="mask-22" fill="white">
                        <use xlink:href="#path-21"></use>
                    </mask>
                    <g id="Clip-294"></g>
                    <polygon id="Fill-293" fill="#474A5B" mask="url(#mask-22)" points="-2.13619048 -2.32059505 18.8257143 -2.32059505 18.8257143 14.0254204 -2.13619048 14.0254204"></polygon>
                </g>
                <g id="分组" transform="translate(122.857143, 170.146237)">
                    <mask id="mask-24" fill="white">
                        <use xlink:href="#path-23"></use>
                    </mask>
                    <g id="Clip-296"></g>
                    <polygon id="Fill-295" fill="#474A5B" mask="url(#mask-24)" points="-1.99380952 -2.19963914 18.9680952 -2.19963914 18.9680952 14.1463763 -1.99380952 14.1463763"></polygon>
                </g>
                <g id="分组" transform="translate(114.761905, 105.034409)">
                    <mask id="mask-26" fill="white">
                        <use xlink:href="#path-25"></use>
                    </mask>
                    <g id="Clip-298"></g>
                    <polygon id="Fill-297" fill="#56A3CE" mask="url(#mask-26)" points="-1.99857143 -2.03182172 30.7404762 -2.03182172 30.7404762 81.3758596 -1.99857143 81.3758596"></polygon>
                </g>
                <g id="分组" transform="translate(121.904762, 48.952688)">
                    <mask id="mask-28" fill="white">
                        <use xlink:href="#path-27"></use>
                    </mask>
                    <g id="Clip-300"></g>
                    <polygon id="Fill-299" fill="#F0E0CB" mask="url(#mask-28)" points="-2.30571429 -2.05197312 20.1614286 -2.05197312 20.1614286 25.9863206 -2.30571429 25.9863206"></polygon>
                </g>
                <g id="分组" transform="translate(128.571429, 45.150538)">
                    <mask id="mask-30" fill="white">
                        <use xlink:href="#path-29"></use>
                    </mask>
                    <g id="Clip-302"></g>
                    <polygon id="Fill-301" fill="#474A5B" mask="url(#mask-30)" points="-2.2347619 -2.33932065 19.7880952 -2.33932065 19.7880952 25.3413809 -2.2347619 25.3413809"></polygon>
                </g>
                <g id="分组" transform="translate(104.761905, 66.062366)">
                    <mask id="mask-32" fill="white">
                        <use xlink:href="#path-31"></use>
                    </mask>
                    <g id="Clip-304"></g>
                    <polygon id="Fill-303" fill="#91D7FD" mask="url(#mask-32)" points="-2.08904762 -1.95002796 40.9557143 -1.95002796 40.9557143 56.404428 -2.08904762 56.404428"></polygon>
                </g>
                <g id="分组" transform="translate(84.285714, 35.169892)">
                    <mask id="mask-34" fill="white">
                        <use xlink:href="#path-33"></use>
                    </mask>
                    <g id="Clip-306"></g>
                    <polygon id="Fill-305" fill="#F0E0CB" mask="url(#mask-34)" points="-2.31904762 -1.90744387 28.2066667 -1.90744387 28.2066667 42.1484546 -2.31904762 42.1484546"></polygon>
                </g>
                <g id="分组" transform="translate(87.619048, 28.991398)">
                    <mask id="mask-36" fill="white">
                        <use xlink:href="#path-35"></use>
                    </mask>
                    <g id="Clip-308"></g>
                    <polygon id="Fill-307" fill="#474A5B" mask="url(#mask-36)" points="-2.04809524 -2.11456602 7.45952381 -2.11456602 7.45952381 16.6927241 -2.04809524 16.6927241"></polygon>
                </g>
                <line x1="181.729319" y1="89.5862035" x2="182.159216" y2="88.4820046" id="Stroke-309" stroke="#FFD28A"></line>
                <g id="分组" transform="translate(172.857143, 110.262366)">
                    <mask id="mask-38" fill="white">
                        <use xlink:href="#path-37"></use>
                    </mask>
                    <g id="Clip-312"></g>
                    <polygon id="Fill-311" fill="#FAC064" mask="url(#mask-38)" points="-2.1947619 -2.05995763 18.0438095 -2.05995763 18.0438095 15.5498452 -2.1947619 15.5498452"></polygon>
                </g>
                <g id="分组" transform="translate(66.190476, 136.877419)">
                    <mask id="mask-40" fill="white">
                        <use xlink:href="#path-39"></use>
                    </mask>
                    <g id="Clip-314"></g>
                    <polygon id="Fill-313" fill="#56A3CE" mask="url(#mask-40)" points="-2.04952381 -2.25111075 16.4690476 -2.25111075 16.4690476 17.5015841 -2.04952381 17.5015841"></polygon>
                </g>
                <g id="分组" transform="translate(172.857143, 30.892473)">
                    <mask id="mask-42" fill="white">
                        <use xlink:href="#path-41"></use>
                    </mask>
                    <g id="Clip-316"></g>
                    <polygon id="Fill-315" fill="#C9D5EF" mask="url(#mask-42)" points="-2.1947619 -1.96181462 16.3238095 -1.96181462 16.3238095 17.7908802 -2.1947619 17.7908802"></polygon>
                </g>
                <g id="分组" transform="translate(118.095238, 19.010753)">
                    <mask id="mask-44" fill="white">
                        <use xlink:href="#path-43"></use>
                    </mask>
                    <g id="Clip-318"></g>
                    <polygon id="Fill-317" fill="#FAC064" mask="url(#mask-44)" points="-2.29428571 -2.02996817 15.7942857 -2.02996817 15.7942857 17.7226791 -2.29428571 17.7226791"></polygon>
                </g>
            </g>
        </g>
    </g>
</svg>