<?xml version="1.0" encoding="UTF-8"?>
<svg width="200px" height="160px" viewBox="0 0 200 160" version="1.1" xmlns="http://www.w3.org/2000/svg" xmlns:xlink="http://www.w3.org/1999/xlink">
    <title>Group 18 Copy</title>
    <defs>
        <linearGradient x1="50%" y1="47.5875436%" x2="72.4647756%" y2="71.29107%" id="linearGradient-1">
            <stop stop-color="#E0ECF2" stop-opacity="0.0309103261" offset="0%"></stop>
            <stop stop-color="#DAE5EA" offset="100%"></stop>
        </linearGradient>
        <linearGradient x1="32.5866837%" y1="40.2013343%" x2="37.2516551%" y2="55.7207042%" id="linearGradient-2">
            <stop stop-color="#A8CBDF" offset="0%"></stop>
            <stop stop-color="#D0EDFF" stop-opacity="0.0219089674" offset="100%"></stop>
        </linearGradient>
        <linearGradient x1="32.5866837%" y1="38.1029976%" x2="37.2516551%" y2="56.9457653%" id="linearGradient-3">
            <stop stop-color="#A8CBDF" offset="0%"></stop>
            <stop stop-color="#D0EDFF" stop-opacity="0.0219089674" offset="100%"></stop>
        </linearGradient>
        <linearGradient x1="32.5866837%" y1="32.1424066%" x2="37.2516551%" y2="60.4257062%" id="linearGradient-4">
            <stop stop-color="#A8CBDF" offset="0%"></stop>
            <stop stop-color="#D0EDFF" stop-opacity="0.0219089674" offset="100%"></stop>
        </linearGradient>
        <linearGradient x1="50%" y1="10.6906602%" x2="50%" y2="100%" id="linearGradient-5">
            <stop stop-color="#D2EBFD" offset="0%"></stop>
            <stop stop-color="#90C3E1" offset="100%"></stop>
        </linearGradient>
        <linearGradient x1="41.2628386%" y1="37.3324671%" x2="80.6076658%" y2="59.0744413%" id="linearGradient-6">
            <stop stop-color="#FCE4C0" offset="0%"></stop>
            <stop stop-color="#F7CB86" offset="100%"></stop>
        </linearGradient>
        <linearGradient x1="35.0551818%" y1="16.0563396%" x2="68.592546%" y2="91.7984486%" id="linearGradient-7">
            <stop stop-color="#E4F7FF" offset="0%"></stop>
            <stop stop-color="#C4EBFE" offset="100%"></stop>
            <stop stop-color="#C4EBFE" offset="100%"></stop>
        </linearGradient>
        <linearGradient x1="50%" y1="16.0505032%" x2="50%" y2="91.2572951%" id="linearGradient-8">
            <stop stop-color="#E2F0FF" offset="0%"></stop>
            <stop stop-color="#A4D3EB" offset="100%"></stop>
        </linearGradient>
        <linearGradient x1="50%" y1="89.3295032%" x2="50%" y2="0%" id="linearGradient-9">
            <stop stop-color="#88C7E9" offset="0%"></stop>
            <stop stop-color="#56A3CE" offset="100%"></stop>
        </linearGradient>
        <linearGradient x1="37.2146787%" y1="18.920288%" x2="50%" y2="93.6227878%" id="linearGradient-10">
            <stop stop-color="#CBECFC" offset="0%"></stop>
            <stop stop-color="#ACD7EF" offset="100%"></stop>
        </linearGradient>
        <linearGradient x1="50%" y1="0%" x2="50%" y2="94.4576669%" id="linearGradient-11">
            <stop stop-color="#B6CFDE" offset="0%"></stop>
            <stop stop-color="#CFECFA" offset="100%"></stop>
        </linearGradient>
    </defs>
    <g id="聊天" stroke="none" stroke-width="1" fill="none" fill-rule="evenodd">
        <g id="添加好友" transform="translate(-344.000000, -929.000000)">
            <g id="Group-18-Copy" transform="translate(344.000000, 929.000000)">
                <polygon id="Rectangle-37-Copy-3" fill="url(#linearGradient-1)" points="3.08948972 0 94.8685445 0 94.8685445 88.3016878 0 127.150582"></polygon>
                <polygon id="Path-87" fill="url(#linearGradient-2)" points="95.7123235 85.9610459 199.570305 133.447921 125.510344 159.49624 52.4492196 103.66007"></polygon>
                <polygon id="Path-87-Copy" fill="url(#linearGradient-3)" opacity="0.348278986" points="67.3171651 123.700042 97.90521 138.875529 81.9186548 144.498309 60.1417718 129.826497"></polygon>
                <polygon id="Path-87-Copy-2" fill="url(#linearGradient-4)" opacity="0.539685236" points="76.8005963 120.20569 84.7067901 125.51736 82.1937426 127.343663 74.1282304 121.909658"></polygon>
                <polygon id="Rectangle-37-Copy-2" fill="url(#linearGradient-5)" points="52.4492196 63.0195948 95.0181435 46.1254393 137.676842 64.2960669 95.1079182 81.1902224"></polygon>
                <path d="M110.493023,74.764332 C103.042969,63.5089882 94.4423573,56.9494568 84.6911887,55.0857376 C70.0644357,52.2901589 61.9549012,60.236941 55.8102757,67.5006365 C51.7138586,72.3431001 69.9414409,77.7976997 110.493023,83.864435 L110.493023,74.764332 Z" id="Path-83" fill="url(#linearGradient-6)"></path>
                <polygon id="Rectangle-37" fill="url(#linearGradient-7)" points="52.4492196 62.8983263 95.1133042 81.1924651 95.1133042 121.726942 52.4492196 103.432803"></polygon>
                <polygon id="Path-81" fill="url(#linearGradient-8)" points="52.3261008 62.8983263 45.4559903 81.5880861 88.5001374 102.513499 94.8652587 80.8960569"></polygon>
                <path d="M52.3880543,62.8983263 L56.2679231,64.5406335 C56.1391398,64.9381785 56.0039264,65.3318944 55.8622828,65.7217811 C54.8602946,68.4798446 52.4801701,71.2595364 48.7219093,74.0608566 C48.5688964,74.0919948 48.4130874,74.1205598 48.2544825,74.1465515 L52.3880543,62.8983263 Z" id="Combined-Shape" fill="#8DA2AB" opacity="0.194802989"></path>
                <path d="M61.3628579,124.76687 C64.0242441,122.118529 66.0341026,121.60455 67.3924333,123.224933 C69.4299293,125.655507 63.9030354,129.989874 61.3628579,129.989874 C59.6694063,129.989874 58.7961623,128.312051 58.743126,124.956405 L61.3628579,124.76687 Z" id="Path-85" fill="#B8C1C9"></path>
                <path d="M87.2701998,67.7975097 C86.299861,65.2176373 77.389328,60.4517386 67.978632,61.7074426 C56.5464276,63.232884 53.8478655,71.0787824 53.8478655,79.313466 C53.8478655,87.5481495 54.9580304,104.613855 58.4406106,124.765319 C58.4406106,126.247229 61.7028645,126.012798 61.7028645,124.765319 C63.2843299,114.698306 67.6720499,82.3031511 69.5014943,82.3031511 C71.3309387,82.3031511 77.1551748,105.647284 77.1551748,106.602217 C77.1551748,107.55715 72.9650666,110.195779 72.9650666,111.956111 C72.9650666,113.129666 73.8672715,114.043731 75.6716814,114.698306 C80.481254,113.958534 83.3727836,111.954011 84.3462702,108.684737 C85.8065002,103.780826 91.6085732,80.249217 87.2701998,67.7975097 Z" id="Path-84" fill="url(#linearGradient-9)"></path>
                <path d="M74.2826805,111.999211 C73.4971489,111.491311 72.7339335,112.026873 72.1869828,114.010067 C71.640032,115.99326 70.5704756,121.413042 72.1869828,122.00508 C73.80349,122.597119 76.7216425,123.914509 76.7216425,122.00508 C76.7216425,120.095651 77.9713519,114.010067 74.2826805,111.999211 Z" id="Path-86" fill="#B8C2CB"></path>
                <polygon id="Rectangle-37-Copy" fill="#AFDBF3" points="95.1079182 81.1902224 137.676842 64.2960669 137.676842 104.830544 95.1079182 121.724699"></polygon>
                <polygon id="Path-82" fill="#D2EFFF" points="95.1079182 81.3477929 105.724139 99.3176095 148.22472 80.0001225 137.721221 64.2960669"></polygon>
                <path d="M31.3871058,38.4378661 C32.2871424,43.6250988 31.8170915,47.5650363 29.9769531,50.2576784 C28.1368148,52.9503206 25.6039417,55.5712852 22.3783337,58.1205724 C25.7137633,59.9841867 28.7166873,61.1043931 31.3871058,61.4811914 C34.0575243,61.8579897 36.3185263,61.8579897 38.1701118,61.4811914 C41.9283726,58.6798712 44.3084971,55.9001794 45.3104853,53.1421159 C46.3124736,50.3840524 46.992688,47.4343724 47.3511286,44.2930757 C46.3234596,42.2442391 45.3431729,41.0487377 44.4102687,40.7065715 C43.4773645,40.3644052 39.1363102,39.6081701 31.3871058,38.4378661 Z" id="Path-88" fill="url(#linearGradient-10)"></path>
                <path d="M44.0796622,40.5344769 C43.9716538,40.5677835 44.3028161,42.6291643 44.0796622,43.1031325 C44.6471199,43.4655439 46.5174272,42.9132735 47.1294142,44.7238517 C47.5812721,43.3486008 45.8132141,40.9519039 44.0796622,40.5344769 Z" id="Path-89" fill="#8CB9CE"></path>
                <path d="M118.884898,87.6523451 C123.676161,88.5856747 127.387061,85.9252974 130.017599,79.6712133 C131.617144,81.7268718 130.649264,86.1172682 137.573327,94.3832652 C137.80637,94.6614735 137.80637,96.7226259 137.573327,100.566722 C136.670772,101.169996 134.844515,101.326065 132.094556,101.034927 C129.344598,100.743789 124.941378,96.2829283 118.884898,87.6523451 Z" id="Path-90-Copy" fill="#8CA4AE" opacity="0.205276268"></path>
                <path d="M123.080835,79.2659016 C127.872099,80.1992312 131.582999,77.5388539 134.213537,71.2847698 C135.893835,73.4442091 140.511988,79.0302637 148.067997,88.0429336 C144.54616,91.8351607 140.838777,93.3931353 136.945848,92.7168575 C133.052919,92.0405797 128.431248,87.5569278 123.080835,79.2659016 Z" id="Path-90" fill="url(#linearGradient-11)"></path>
                <path d="M133.570679,91.3062536 C135.032227,91.3062536 136.252742,90.9222583 137.232225,90.1542677 C138.032024,90.6450066 139.474509,91.7507404 142.493369,92.2077715 C138.98594,93.3113922 136.01171,93.0108862 133.570679,91.3062536 Z" id="Path-91" fill="#91A9B4"></path>
            </g>
        </g>
    </g>
</svg>