<?xml version="1.0" encoding="UTF-8"?>
<svg width="200px" height="145px" viewBox="0 0 200 145" version="1.1" xmlns="http://www.w3.org/2000/svg" xmlns:xlink="http://www.w3.org/1999/xlink">
    <title>分组 5</title>
    <defs>
        <path d="M46.5125581,6.61269936 C58.9097674,-3.48801929 152.18,-2.5228135 175.476279,16.7134646 C198.772093,35.9496961 182.906512,47.6401463 184.133023,55.3720965 C185.359535,63.104 200,59.3560064 200,84.1059212 C200,108.855836 179.963721,121.876603 157.952093,124.950277 C135.940465,128.023904 132.994884,117.112584 109.564651,121.876603 C86.1344186,126.640669 89.3734884,141.4841 53.3130233,133.217188 C17.2525581,124.950277 -0.894418605,129.691963 0.233953488,79.4140756 C1.36186047,29.1361881 21.4632558,42.9351061 33.2534884,32.6278907 C45.0437209,22.3206752 34.115814,16.7134646 46.5125581,6.61269936 Z" id="path-1"></path>
        <path d="M199.24612,0.264123794 C195.40773,19.8454421 177.455304,30.3780002 157.952093,33.1014019 C135.940465,36.1750289 132.994884,25.263709 109.564651,30.0277283 C86.1344186,34.7917942 89.3734884,49.6352251 53.3130233,41.3683135 C20.6192857,33.8732289 2.65025512,37.0710809 0.420852902,0.264123794 L199.24612,0.264123794 L199.24612,0.264123794 Z" id="path-3"></path>
        <path d="M2.3255814,0 L23.255814,0 C24.54,0 25.5813953,1.04372026 25.5813953,2.33118971 L25.5813953,25.6430868 C25.5813953,26.9305563 24.54,27.9742765 23.255814,27.9742765 L2.3255814,27.9742765 C1.04139535,27.9742765 0,26.9305563 0,25.6430868 L0,2.33118971 C0,1.04372026 1.04139535,0 2.3255814,0 Z" id="path-5"></path>
        <path d="M2.3255814,0 L23.255814,0 C24.54,0 25.5813953,1.04372026 25.5813953,2.33118971 L25.5813953,25.6430868 C25.5813953,26.9305563 24.54,27.9742765 23.255814,27.9742765 L2.3255814,27.9742765 C1.04139535,27.9742765 0,26.9305563 0,25.6430868 L0,2.33118971 C0,1.04372026 1.04139535,0 2.3255814,0 Z" id="path-7"></path>
        <path d="M2.3255814,0 L23.255814,0 C24.54,0 25.5813953,1.04372026 25.5813953,2.33118971 L25.5813953,17.2508039 C25.5813953,18.5382733 24.54,19.5819936 23.255814,19.5819936 L2.3255814,19.5819936 C1.04139535,19.5819936 0,18.5382733 0,17.2508039 L0,2.33118971 C0,1.04372026 1.04139535,0 2.3255814,0 Z" id="path-9"></path>
        <path d="M2.3255814,0 L23.255814,0 C24.54,0 25.5813953,1.04372026 25.5813953,2.33118971 L25.5813953,25.6430868 C25.5813953,26.9305563 24.54,27.9742765 23.255814,27.9742765 L2.3255814,27.9742765 C1.04139535,27.9742765 0,26.9305563 0,25.6430868 L0,2.33118971 C0,1.04372026 1.04139535,0 2.3255814,0 Z" id="path-11"></path>
        <path d="M2.3255814,0 L23.255814,0 C24.54,0 25.5813953,1.04372026 25.5813953,2.33118971 L25.5813953,25.6430868 C25.5813953,26.9305563 24.54,27.9742765 23.255814,27.9742765 L2.3255814,27.9742765 C1.04139535,27.9742765 0,26.9305563 0,25.6430868 L0,2.33118971 C0,1.04372026 1.04139535,0 2.3255814,0 Z" id="path-13"></path>
        <path d="M2.3255814,0 L23.255814,0 C24.54,0 25.5813953,1.04372026 25.5813953,2.33118971 L25.5813953,25.6430868 C25.5813953,26.9305563 24.54,27.9742765 23.255814,27.9742765 L2.3255814,27.9742765 C1.04139535,27.9742765 0,26.9305563 0,25.6430868 L0,2.33118971 C0,1.04372026 1.04139535,0 2.3255814,0 Z" id="path-15"></path>
        <path d="M2.3255814,0 L18.6046512,0 C19.8888372,0 20.9302326,1.04372026 20.9302326,2.33118971 L20.9302326,16.318328 C20.9302326,17.6057974 19.8888372,18.6495177 18.6046512,18.6495177 L2.3255814,18.6495177 C1.04139535,18.6495177 0,17.6057974 0,16.318328 L0,2.33118971 C0,1.04372026 1.04139535,0 2.3255814,0 Z" id="path-17"></path>
        <path d="M2.3255814,0 L18.6046512,0 C19.8888372,0 20.9302326,1.04372026 20.9302326,2.33118971 L20.9302326,16.318328 C20.9302326,17.6057974 19.8888372,18.6495177 18.6046512,18.6495177 L2.3255814,18.6495177 C1.04139535,18.6495177 0,17.6057974 0,16.318328 L0,2.33118971 C0,1.04372026 1.04139535,0 2.3255814,0 Z" id="path-19"></path>
        <path d="M2.3255814,0 L18.6046512,0 C19.8888372,0 20.9302326,1.04372026 20.9302326,2.33118971 L20.9302326,10.7234727 C20.9302326,12.0109421 19.8888372,13.0546624 18.6046512,13.0546624 L2.3255814,13.0546624 C1.04139535,13.0546624 0,12.0109421 0,10.7234727 L0,2.33118971 C0,1.04372026 1.04139535,0 2.3255814,0 Z" id="path-21"></path>
        <path d="M2.3255814,0 L18.6046512,0 C19.8888372,0 20.9302326,1.04372026 20.9302326,2.33118971 L20.9302326,16.7845659 C20.9302326,18.0720354 19.8888372,19.1157556 18.6046512,19.1157556 L2.3255814,19.1157556 C1.04139535,19.1157556 0,18.0720354 0,16.7845659 L0,2.33118971 C0,1.04372026 1.04139535,0 2.3255814,0 Z" id="path-23"></path>
        <path d="M2.3255814,0 L18.6046512,0 C19.8888372,0 20.9302326,1.04372026 20.9302326,2.33118971 L20.9302326,16.7845659 C20.9302326,18.0720354 19.8888372,19.1157556 18.6046512,19.1157556 L2.3255814,19.1157556 C1.04139535,19.1157556 0,18.0720354 0,16.7845659 L0,2.33118971 C0,1.04372026 1.04139535,0 2.3255814,0 Z" id="path-25"></path>
        <path d="M2.3255814,0 L18.6046512,0 C19.8888372,0 20.9302326,1.04372026 20.9302326,2.33118971 L20.9302326,16.7845659 C20.9302326,18.0720354 19.8888372,19.1157556 18.6046512,19.1157556 L2.3255814,19.1157556 C1.04139535,19.1157556 0,18.0720354 0,16.7845659 L0,2.33118971 C0,1.04372026 1.04139535,0 2.3255814,0 Z" id="path-27"></path>
        <polygon id="path-29" points="54.9293023 0 56.4186047 8.26346141 0 8.26346141 8.12930233 0"></polygon>
        <polygon id="path-31" points="0 6.91496141 23.5665116 0 39.9116279 0 16.8688372 6.91496141"></polygon>
        <path d="M14.0697674,0.0683038585 C22.2195349,0.0683038585 31.0767442,3.9267492 31.6976744,5.12917685 C32.3186047,6.33155788 33.6423256,16.9459309 32.4186047,23.4339116 C31.6023256,27.7592476 30.3753488,31.1571897 28.7367442,33.6277379 L0.184186047,33.6277379 L0.184186047,3.99854984 C4.00790698,1.37838585 8.63627907,0.0683038585 14.0697674,0.0683038585 Z" id="path-33"></path>
        <path d="M3.20186047,0.092221865 L10.1265116,0.944504823 C10.8916279,1.03863826 11.4353488,1.73654984 11.3413953,2.50327814 L9.98093023,13.6095788 C9.88697674,14.3763071 9.19116279,14.9215257 8.42604651,14.8273923 L1.50139535,13.9751093 C0.73627907,13.8809759 0.19255814,13.1830643 0.286511628,12.416336 L1.64697674,1.31003537 C1.74093023,0.543307074 2.43674419,-0.00191157556 3.20186047,0.092221865 Z" id="path-35"></path>
        <path d="M0.184186047,0.264123794 L16.5948837,1.16069936 C16.5260465,10.4985129 15.1413953,15.8629534 12.4404651,17.2540209 C9.74,18.645135 8.67674419,19.3406688 9.25162791,19.3406688 L9.25162791,21.7818907 C6.99813953,22.0945498 5.28883721,22.1995466 4.1227907,22.0969743 C2.9572093,21.9944019 1.64418605,21.6233232 0.184186047,20.9838778 L0.184186047,0.264123794 Z" id="path-37"></path>
        <path d="M17.7693023,0.52973955 C21.1432558,2.33757717 18.3711628,11.4193328 15.175814,16.1865691 C11.98,20.9538521 9.96046512,24.013119 10.7725581,25.212283 C11.5846512,26.4114469 38.3488372,30.9950322 38.3488372,32.1786704 C38.3488372,33.3623087 38.5265116,35.5973135 36.6534884,36.1741431 C34.78,36.7509727 1.67581395,34.8319839 0.356744186,29.4332749 C-0.962325581,24.0345193 5.64744186,12.5620354 7.66976744,9.59522347 C9.69255814,6.62841158 14.3953488,-1.27814469 17.7693023,0.52973955 Z" id="path-39"></path>
        <path d="M1.70976744,9.89300965 L0.184186047,0.264123794 L9.85581395,0.264123794 C15.2865116,14.3746286 18.0018605,22.0511431 18.0018605,23.293574 C18.0018605,25.1572669 17.1893023,27.2697444 12.5423256,27.2697444 C9.44418605,27.2697444 5.83348837,21.4775305 1.70976744,9.89300965 Z" id="path-41"></path>
        <path d="M9.72372093,11.1800129 C9.72372093,17.7916865 9.72372093,21.542664 9.72372093,22.4329453 C9.72372093,23.3231801 10.515814,23.9414116 12.1009302,24.2875932 L0.184186047,24.2875932 C0.184186047,8.27194695 5.07627907,0.264123794 14.8609302,0.264123794 C29.5372093,0.264123794 28.2116279,17.7337797 28.2116279,19.6221367 C28.2116279,20.8810257 28.952093,22.4361624 30.4325581,24.2875932 L23.375814,24.2875932 C24.0823256,21.988574 24.5139535,20.0445949 24.6711628,18.4556559 C24.827907,16.8667637 24.827907,14.4415338 24.6711628,11.1800129 L9.72372093,11.1800129 Z" id="path-43"></path>
        <path d="M8.03581395,8.18527331 L2.97302326,8.18527331 C1.6772093,6.25612058 0.80744186,4.66941961 0.36372093,3.42517042 C-0.301395349,1.55881994 0.951162791,1.71841318 2.97302326,0.620236334 C4.99534884,-0.477987138 5.95116279,1.18769453 7.4255814,2.58505627 C8.40837209,3.51659968 8.61209302,5.38332315 8.03581395,8.18527331 Z" id="path-45"></path>
        <path d="M0.864651163,0.264123794 C3.37395349,0.52237299 5.34232558,0.896016077 6.77023256,1.38505305 C8.91255814,2.11863183 12.0906977,3.03665434 12.0906977,4.41993569 C12.0906977,5.80321704 14.3744186,6.57139068 13.2325581,7.4104791 C12.0906977,8.2495209 8.54232558,7.52461415 7.20837209,8.2495209 C6.31906977,8.73277653 3.97767442,7.15871061 0.184186047,3.52732315 L0.864651163,0.264123794 Z" id="path-47"></path>
        <path d="M1.62790698,3.26366559 C0.728837209,3.26366559 0,2.53307074 0,1.6318328 C0,0.730594855 0.728837209,0 1.62790698,0 C2.52697674,0 3.25581395,0.730594855 3.25581395,1.6318328 C3.25581395,2.53307074 2.52697674,3.26366559 1.62790698,3.26366559 Z" id="path-49"></path>
        <path d="M1.62790698,3.26366559 C0.728837209,3.26366559 0,2.53307074 0,1.6318328 C0,0.730594855 0.728837209,0 1.62790698,0 C2.52697674,0 3.25581395,0.730594855 3.25581395,1.6318328 C3.25581395,2.53307074 2.52697674,3.26366559 1.62790698,3.26366559 Z" id="path-51"></path>
        <path d="M1.62790698,3.26366559 C0.728837209,3.26366559 0,2.53307074 0,1.6318328 C0,0.730594855 0.728837209,0 1.62790698,0 C2.52697674,0 3.25581395,0.730594855 3.25581395,1.6318328 C3.25581395,2.53307074 2.52697674,3.26366559 1.62790698,3.26366559 Z" id="path-53"></path>
        <path d="M1.62790698,3.26366559 C0.728837209,3.26366559 0,2.53307074 0,1.6318328 C0,0.730594855 0.728837209,0 1.62790698,0 C2.52697674,0 3.25581395,0.730594855 3.25581395,1.6318328 C3.25581395,2.53307074 2.52697674,3.26366559 1.62790698,3.26366559 Z" id="path-55"></path>
        <path d="M1.62790698,3.26366559 C0.728837209,3.26366559 0,2.53307074 0,1.6318328 C0,0.730594855 0.728837209,0 1.62790698,0 C2.52697674,0 3.25581395,0.730594855 3.25581395,1.6318328 C3.25581395,2.53307074 2.52697674,3.26366559 1.62790698,3.26366559 Z" id="path-57"></path>
        <path d="M1.62790698,3.26366559 C0.728837209,3.26366559 0,2.53307074 0,1.6318328 C0,0.730594855 0.728837209,0 1.62790698,0 C2.52697674,0 3.25581395,0.730594855 3.25581395,1.6318328 C3.25581395,2.53307074 2.52697674,3.26366559 1.62790698,3.26366559 Z" id="path-59"></path>
    </defs>
    <g id="聊天" stroke="none" stroke-width="1" fill="none" fill-rule="evenodd">
        <g id="空页面" transform="translate(-146.000000, -1011.000000)">
            <g id="分组-5" transform="translate(146.000000, 1011.000000)">
                <g id="分组" transform="translate(0.000000, 9.324759)">
                    <g>
                        <mask id="mask-2" fill="white">
                            <use xlink:href="#path-1"></use>
                        </mask>
                        <g id="Clip-565"></g>
                        <polygon id="Fill-564" fill="#E4F5FE" mask="url(#mask-2)" points="-2.14139535 -2.06706592 202.325581 -2.06706592 202.325581 138.006431 -2.14139535 138.006431"></polygon>
                    </g>
                    <g transform="translate(0.000000, 91.848875)">
                        <mask id="mask-4" fill="white">
                            <use xlink:href="#path-3"></use>
                        </mask>
                        <g id="Clip-567"></g>
                        <polygon id="Fill-566" fill="#D9ECF5" mask="url(#mask-4)" points="-2.60651163 -2.06706592 201.860465 -2.06706592 201.860465 49.2191077 -2.60651163 49.2191077"></polygon>
                    </g>
                </g>
                <g id="分组" transform="translate(104.651163, 0.000000)">
                    <mask id="mask-6" fill="white">
                        <use xlink:href="#path-5"></use>
                    </mask>
                    <g id="Clip-569"></g>
                    <polygon id="Fill-568" fill="#FFFFFF" mask="url(#mask-6)" points="-2.3255814 -2.33118971 27.9069767 -2.33118971 27.9069767 30.3054662 -2.3255814 30.3054662"></polygon>
                </g>
                <g id="分组" transform="translate(104.651163, 29.839228)">
                    <mask id="mask-8" fill="white">
                        <use xlink:href="#path-7"></use>
                    </mask>
                    <g id="Clip-571"></g>
                    <polygon id="Fill-570" fill="#FFFFFF" mask="url(#mask-8)" points="-2.3255814 -2.33118971 27.9069767 -2.33118971 27.9069767 30.3054662 -2.3255814 30.3054662"></polygon>
                </g>
                <g id="分组" transform="translate(132.093023, 3.729904)">
                    <mask id="mask-10" fill="white">
                        <use xlink:href="#path-9"></use>
                    </mask>
                    <g id="Clip-573"></g>
                    <polygon id="Fill-572" fill="#FFFFFF" mask="url(#mask-10)" points="-2.3255814 -2.33118971 27.9069767 -2.33118971 27.9069767 21.9131833 -2.3255814 21.9131833"></polygon>
                </g>
                <g id="分组" transform="translate(132.093023, 26.109325)">
                    <mask id="mask-12" fill="white">
                        <use xlink:href="#path-11"></use>
                    </mask>
                    <g id="Clip-575"></g>
                    <polygon id="Fill-574" fill="#FFFFFF" mask="url(#mask-12)" points="-2.3255814 -2.33118971 27.9069767 -2.33118971 27.9069767 30.3054662 -2.3255814 30.3054662"></polygon>
                </g>
                <g id="分组" transform="translate(132.093023, 55.948553)">
                    <mask id="mask-14" fill="white">
                        <use xlink:href="#path-13"></use>
                    </mask>
                    <g id="Clip-577"></g>
                    <polygon id="Fill-576" fill="#FFFFFF" mask="url(#mask-14)" points="-2.3255814 -2.33118971 27.9069767 -2.33118971 27.9069767 30.3054662 -2.3255814 30.3054662"></polygon>
                </g>
                <g id="分组" transform="translate(104.651163, 60.144695)">
                    <mask id="mask-16" fill="white">
                        <use xlink:href="#path-15"></use>
                    </mask>
                    <g id="Clip-579"></g>
                    <polygon id="Fill-578" fill="#FFFFFF" mask="url(#mask-16)" points="-2.3255814 -2.33118971 27.9069767 -2.33118971 27.9069767 30.3054662 -2.3255814 30.3054662"></polygon>
                </g>
                <g id="分组" transform="translate(106.976744, 2.331190)">
                    <mask id="mask-18" fill="white">
                        <use xlink:href="#path-17"></use>
                    </mask>
                    <g id="Clip-581"></g>
                    <polygon id="Fill-580" fill="#EBF7FE" mask="url(#mask-18)" points="-2.3255814 -2.33118971 23.255814 -2.33118971 23.255814 20.9807074 -2.3255814 20.9807074"></polygon>
                </g>
                <g id="分组" transform="translate(106.976744, 32.170418)">
                    <mask id="mask-20" fill="white">
                        <use xlink:href="#path-19"></use>
                    </mask>
                    <g id="Clip-583"></g>
                    <polygon id="Fill-582" fill="#EBF7FE" mask="url(#mask-20)" points="-2.3255814 -2.33118971 23.255814 -2.33118971 23.255814 20.9807074 -2.3255814 20.9807074"></polygon>
                </g>
                <g id="分组" transform="translate(134.883721, 5.594855)">
                    <mask id="mask-22" fill="white">
                        <use xlink:href="#path-21"></use>
                    </mask>
                    <g id="Clip-585"></g>
                    <polygon id="Fill-584" fill="#EBF7FE" mask="url(#mask-22)" points="-2.3255814 -2.33118971 23.255814 -2.33118971 23.255814 15.3858521 -2.3255814 15.3858521"></polygon>
                </g>
                <g id="分组" transform="translate(134.883721, 29.372990)">
                    <mask id="mask-24" fill="white">
                        <use xlink:href="#path-23"></use>
                    </mask>
                    <g id="Clip-587"></g>
                    <polygon id="Fill-586" fill="#EBF7FE" mask="url(#mask-24)" points="-2.3255814 -2.33118971 23.255814 -2.33118971 23.255814 21.4469453 -2.3255814 21.4469453"></polygon>
                </g>
                <g id="分组" transform="translate(134.883721, 59.212219)">
                    <mask id="mask-26" fill="white">
                        <use xlink:href="#path-25"></use>
                    </mask>
                    <g id="Clip-589"></g>
                    <polygon id="Fill-588" fill="#EBF7FE" mask="url(#mask-26)" points="-2.3255814 -2.33118971 23.255814 -2.33118971 23.255814 21.4469453 -2.3255814 21.4469453"></polygon>
                </g>
                <g id="分组" transform="translate(106.976744, 62.942122)">
                    <mask id="mask-28" fill="white">
                        <use xlink:href="#path-27"></use>
                    </mask>
                    <g id="Clip-591"></g>
                    <polygon id="Fill-590" fill="#EBF7FE" mask="url(#mask-28)" points="-2.3255814 -2.33118971 23.255814 -2.33118971 23.255814 21.4469453 -2.3255814 21.4469453"></polygon>
                </g>
                <g id="分组" transform="translate(39.534884, 105.369775)">
                    <mask id="mask-30" fill="white">
                        <use xlink:href="#path-29"></use>
                    </mask>
                    <g id="Clip-593"></g>
                    <polygon id="Fill-592" fill="#FFFFFF" mask="url(#mask-30)" points="-2.3255814 -2.33118971 58.744186 -2.33118971 58.744186 10.5946511 -2.3255814 10.5946511"></polygon>
                </g>
                <g id="分组" transform="translate(96.744186, 110.032154)">
                    <mask id="mask-32" fill="white">
                        <use xlink:href="#path-31"></use>
                    </mask>
                    <g id="Clip-595"></g>
                    <polygon id="Fill-594" fill="#FFFFFF" mask="url(#mask-32)" points="-2.3255814 -2.33118971 42.2372093 -2.33118971 42.2372093 9.24615113 -2.3255814 9.24615113"></polygon>
                </g>
                <g id="分组" transform="translate(46.976744, 66.672026)">
                    <mask id="mask-34" fill="white">
                        <use xlink:href="#path-33"></use>
                    </mask>
                    <g id="Clip-597"></g>
                    <polygon id="Fill-596" fill="#83D3FF" mask="url(#mask-34)" points="-2.14139535 -2.26288585 35.2455814 -2.26288585 35.2455814 35.9589277 -2.14139535 35.9589277"></polygon>
                </g>
                <g id="分组" transform="translate(73.953488, 61.543408)">
                    <mask id="mask-36" fill="white">
                        <use xlink:href="#path-35"></use>
                    </mask>
                    <g id="Clip-599"></g>
                    <polygon id="Fill-598" fill="#99B8C7" mask="url(#mask-36)" points="-0.207906977 -2.67615916 14.1032558 -0.914712219 11.835814 17.5957733 -2.47534884 15.8343264"></polygon>
                </g>
                <g id="分组" transform="translate(57.674419, 46.157556)">
                    <mask id="mask-38" fill="white">
                        <use xlink:href="#path-37"></use>
                    </mask>
                    <g id="Clip-601"></g>
                    <polygon id="Fill-600" fill="#F0E0CB" mask="url(#mask-38)" points="-2.14139535 -2.06706592 18.9204651 -2.06706592 18.9204651 24.4661624 -2.14139535 24.4661624"></polygon>
                </g>
                <g id="分组" transform="translate(32.558140, 69.003215)">
                    <mask id="mask-40" fill="white">
                        <use xlink:href="#path-39"></use>
                    </mask>
                    <g id="Clip-603"></g>
                    <polygon id="Fill-602" fill="#6BC1F0" mask="url(#mask-40)" points="-2.14139535 -2.06706592 40.6786047 -2.06706592 40.6786047 38.6038489 -2.14139535 38.6038489"></polygon>
                </g>
                <g id="分组" transform="translate(77.674419, 75.530547)">
                    <mask id="mask-42" fill="white">
                        <use xlink:href="#path-41"></use>
                    </mask>
                    <g id="Clip-605"></g>
                    <polygon id="Fill-604" fill="#6BC1F0" mask="url(#mask-42)" points="-2.14139535 -2.06706592 20.3274419 -2.06706592 20.3274419 29.6009341 -2.14139535 29.6009341"></polygon>
                </g>
                <g id="分组" transform="translate(48.372093, 37.299035)">
                    <mask id="mask-44" fill="white">
                        <use xlink:href="#path-43"></use>
                    </mask>
                    <g id="Clip-607"></g>
                    <polygon id="Fill-606" fill="#474A5B" mask="url(#mask-44)" points="-2.14139535 -2.06706592 32.7581395 -2.06706592 32.7581395 26.618783 -2.14139535 26.618783"></polygon>
                </g>
                <g id="分组" transform="translate(79.534884, 68.070740)">
                    <mask id="mask-46" fill="white">
                        <use xlink:href="#path-45"></use>
                    </mask>
                    <g id="Clip-609"></g>
                    <polygon id="Fill-608" fill="#F0E0CB" mask="url(#mask-46)" points="-2.14139535 -2.06706592 10.6809302 -2.06706592 10.6809302 10.516463 -2.14139535 10.516463"></polygon>
                </g>
                <g id="分组" transform="translate(70.232558, 101.173633)">
                    <mask id="mask-48" fill="white">
                        <use xlink:href="#path-47"></use>
                    </mask>
                    <g id="Clip-611"></g>
                    <polygon id="Fill-610" fill="#F0E0CB" mask="url(#mask-48)" points="-2.14139535 -2.06706592 15.8776744 -2.06706592 15.8776744 10.6658457 -2.14139535 10.6658457"></polygon>
                </g>
                <g id="分组" transform="translate(123.720930, 22.379421)">
                    <mask id="mask-50" fill="white">
                        <use xlink:href="#path-49"></use>
                    </mask>
                    <g id="Clip-613"></g>
                    <polygon id="Fill-612" fill="#FAC064" mask="url(#mask-50)" points="-2.3255814 -2.33118971 5.58139535 -2.33118971 5.58139535 5.59485531 -2.3255814 5.59485531"></polygon>
                </g>
                <g id="分组" transform="translate(123.720930, 52.684887)">
                    <mask id="mask-52" fill="white">
                        <use xlink:href="#path-51"></use>
                    </mask>
                    <g id="Clip-615"></g>
                    <polygon id="Fill-614" fill="#FAC064" mask="url(#mask-52)" points="-2.3255814 -2.33118971 5.58139535 -2.33118971 5.58139535 5.59485531 -2.3255814 5.59485531"></polygon>
                </g>
                <g id="分组" transform="translate(152.093023, 49.421222)">
                    <mask id="mask-54" fill="white">
                        <use xlink:href="#path-53"></use>
                    </mask>
                    <g id="Clip-617"></g>
                    <polygon id="Fill-616" fill="#FAC064" mask="url(#mask-54)" points="-2.3255814 -2.33118971 5.58139535 -2.33118971 5.58139535 5.59485531 -2.3255814 5.59485531"></polygon>
                </g>
                <g id="分组" transform="translate(152.093023, 79.260450)">
                    <mask id="mask-56" fill="white">
                        <use xlink:href="#path-55"></use>
                    </mask>
                    <g id="Clip-619"></g>
                    <polygon id="Fill-618" fill="#FAC064" mask="url(#mask-56)" points="-2.3255814 -2.33118971 5.58139535 -2.33118971 5.58139535 5.59485531 -2.3255814 5.59485531"></polygon>
                </g>
                <g id="分组" transform="translate(123.720930, 83.456592)">
                    <mask id="mask-58" fill="white">
                        <use xlink:href="#path-57"></use>
                    </mask>
                    <g id="Clip-621"></g>
                    <polygon id="Fill-620" fill="#FAC064" mask="url(#mask-58)" points="-2.3255814 -2.33118971 5.58139535 -2.33118971 5.58139535 5.59485531 -2.3255814 5.59485531"></polygon>
                </g>
                <g id="分组" transform="translate(152.093023, 19.115756)">
                    <mask id="mask-60" fill="white">
                        <use xlink:href="#path-59"></use>
                    </mask>
                    <g id="Clip-623"></g>
                    <polygon id="Fill-622" fill="#FAC064" mask="url(#mask-60)" points="-2.3255814 -2.33118971 5.58139535 -2.33118971 5.58139535 5.59485531 -2.3255814 5.59485531"></polygon>
                </g>
            </g>
        </g>
    </g>
</svg>