<?xml version="1.0" encoding="UTF-8"?>
<svg width="601px" height="460px" viewBox="0 0 601 460" version="1.1" xmlns="http://www.w3.org/2000/svg" xmlns:xlink="http://www.w3.org/1999/xlink">
    <title>Mask</title>
    <defs>
        <rect id="path-1" x="0" y="0" width="600" height="460"></rect>
        <linearGradient x1="83.890025%" y1="10.8602557%" x2="16.9603053%" y2="80.1076989%" id="linearGradient-3">
            <stop stop-color="#32B2F7" offset="0%"></stop>
            <stop stop-color="#90DEFF" stop-opacity="0.762596241" offset="55.6840983%"></stop>
            <stop stop-color="#96DAFF" offset="100%"></stop>
        </linearGradient>
        <linearGradient x1="0%" y1="47.1827994%" x2="102.416419%" y2="54.4701503%" id="linearGradient-4">
            <stop stop-color="#1FAEFB" offset="0%"></stop>
            <stop stop-color="#7BD0FF" offset="100%"></stop>
        </linearGradient>
        <linearGradient x1="0%" y1="47.2507312%" x2="102.416419%" y2="54.3623606%" id="linearGradient-5">
            <stop stop-color="#1FAEFB" offset="0%"></stop>
            <stop stop-color="#7BD0FF" offset="100%"></stop>
        </linearGradient>
        <linearGradient x1="0%" y1="46.9619243%" x2="102.416419%" y2="54.8206207%" id="linearGradient-6">
            <stop stop-color="#1FAEFB" offset="0%"></stop>
            <stop stop-color="#7BD0FF" offset="100%"></stop>
        </linearGradient>
        <linearGradient x1="60.5099734%" y1="2.84583994%" x2="25.3284662%" y2="75.0536772%" id="linearGradient-7">
            <stop stop-color="#F0FAFF" offset="0%"></stop>
            <stop stop-color="#C5EAFF" offset="100%"></stop>
        </linearGradient>
        <linearGradient x1="86.2199731%" y1="32.2792112%" x2="28.0727496%" y2="66.7730949%" id="linearGradient-8">
            <stop stop-color="#C2E8FC" offset="0%"></stop>
            <stop stop-color="#EDF9FF" offset="100%"></stop>
        </linearGradient>
        <linearGradient x1="59.0039808%" y1="0%" x2="50.2421365%" y2="97.310784%" id="linearGradient-9">
            <stop stop-color="#1FAEFB" offset="0%"></stop>
            <stop stop-color="#7BD0FF" offset="100%"></stop>
        </linearGradient>
        <linearGradient x1="51.4404111%" y1="0.988752095%" x2="50.0391226%" y2="97.310784%" id="linearGradient-10">
            <stop stop-color="#0A99E6" offset="0%"></stop>
            <stop stop-color="#56BCF3" offset="100%"></stop>
        </linearGradient>
        <linearGradient x1="87.8285732%" y1="45.9321606%" x2="29.2529613%" y2="43.5005459%" id="linearGradient-11">
            <stop stop-color="#59D4FF" stop-opacity="0" offset="0%"></stop>
            <stop stop-color="#57D6FF" offset="100%"></stop>
        </linearGradient>
        <path d="M21.507922,61.5461855 L10.2574558,63.2903383 C5.898254,63.2903383 2.5644735,59.9430324 2.5644735,55.565881 L2.5644735,45.266634 C0.769306991,41.1469 0,36.7696606 0,32.3926852 C0,13.8540581 13.9907625,3.4001943 25.8294674,1.07975764 C47.3373894,-3.1358868 63.4483698,9.91313808 65.599162,28.0736986 C67.7499542,46.2342592 56.9813011,58.671749 45.1666361,62.6259431 C38.7142595,64.7854584 30.8280215,64.4255392 21.507922,61.5461855 Z" id="path-12"></path>
        <linearGradient x1="96.5141435%" y1="36.2942928%" x2="11.7352548%" y2="58.1871274%" id="linearGradient-14">
            <stop stop-color="#C2E8FC" offset="0%"></stop>
            <stop stop-color="#EDF9FF" offset="100%"></stop>
        </linearGradient>
        <linearGradient x1="50.0535071%" y1="15.6620497%" x2="50.0535071%" y2="78.9688221%" id="linearGradient-15">
            <stop stop-color="#59D4FF" stop-opacity="0" offset="0%"></stop>
            <stop stop-color="#57D6FF" offset="100%"></stop>
        </linearGradient>
        <linearGradient x1="84.6538029%" y1="3.81516846%" x2="9.00214576%" y2="89.5084475%" id="linearGradient-16">
            <stop stop-color="#1CC9EA" offset="0%"></stop>
            <stop stop-color="#7BEDFF" offset="100%"></stop>
        </linearGradient>
        <linearGradient x1="65.5492287%" y1="0.00347151683%" x2="50.4181524%" y2="97.3074992%" id="linearGradient-17">
            <stop stop-color="#1FAEFB" offset="0%"></stop>
            <stop stop-color="#7BD0FF" offset="100%"></stop>
        </linearGradient>
        <linearGradient x1="50.0535071%" y1="100%" x2="50.0535071%" y2="15.6620497%" id="linearGradient-18">
            <stop stop-color="#62D7FF" stop-opacity="0" offset="0%"></stop>
            <stop stop-color="#75EAFF" offset="100%"></stop>
        </linearGradient>
        <linearGradient x1="50.0535071%" y1="100%" x2="50.0535071%" y2="15.6620497%" id="linearGradient-19">
            <stop stop-color="#62D7FF" stop-opacity="0" offset="0%"></stop>
            <stop stop-color="#75EAFF" offset="100%"></stop>
        </linearGradient>
        <linearGradient x1="50.0535071%" y1="100%" x2="50.0535071%" y2="15.6620497%" id="linearGradient-20">
            <stop stop-color="#62D7FF" stop-opacity="0" offset="0%"></stop>
            <stop stop-color="#60E7FF" offset="100%"></stop>
        </linearGradient>
        <linearGradient x1="96.5141435%" y1="30.9063036%" x2="11.7352548%" y2="61.4056519%" id="linearGradient-21">
            <stop stop-color="#C2E8FC" offset="0%"></stop>
            <stop stop-color="#EDF9FF" offset="100%"></stop>
        </linearGradient>
        <linearGradient x1="50.0535071%" y1="15.6620497%" x2="50.0535071%" y2="78.9688221%" id="linearGradient-22">
            <stop stop-color="#59D4FF" stop-opacity="0" offset="0%"></stop>
            <stop stop-color="#57D6FF" offset="100%"></stop>
        </linearGradient>
        <linearGradient x1="84.6538029%" y1="3.81519457%" x2="9.00214576%" y2="89.5084252%" id="linearGradient-23">
            <stop stop-color="#1CC9EA" offset="0%"></stop>
            <stop stop-color="#7BEDFF" offset="100%"></stop>
        </linearGradient>
        <linearGradient x1="65.5492287%" y1="0.00349649069%" x2="50.4181524%" y2="97.3074755%" id="linearGradient-24">
            <stop stop-color="#1FAEFB" offset="0%"></stop>
            <stop stop-color="#7BD0FF" offset="100%"></stop>
        </linearGradient>
        <linearGradient x1="50.0535071%" y1="0%" x2="50.0535071%" y2="78.9688221%" id="linearGradient-25">
            <stop stop-color="#59D4FF" stop-opacity="0" offset="0%"></stop>
            <stop stop-color="#57D6FF" stop-opacity="0.860054348" offset="100%"></stop>
        </linearGradient>
    </defs>
    <g id="聊天" stroke="none" stroke-width="1" fill="none" fill-rule="evenodd">
        <g id="创建账户" transform="translate(-359.000000, -300.000000)">
            <g id="分组-5-copy备份" transform="translate(359.954545, 300.000000)">
                <mask id="mask-2" fill="white">
                    <use xlink:href="#path-1"></use>
                </mask>
                <g id="Mask" fill-rule="nonzero"></g>
                <g id="分组-4" mask="url(#mask-2)">
                    <g transform="translate(7.022846, 20.435456)">
                        <path d="M594.451418,2.42110176 C549.184187,-3.04250438 510.302499,0.741020021 477.806352,13.771675 C295.037724,87.0602074 362.459498,142.545275 138.431699,190.612151 C7.80883916,218.638283 -48.4093377,506.041123 49.7953353,525.757375 C115.265112,538.901543 298.977233,530.418342 600.931699,500.307773 L601.01105,89.3325474 L594.451418,2.42110176 Z" id="Path-77" fill="url(#linearGradient-3)"></path>
                        <g id="分组-6" stroke-width="1" fill="none" transform="translate(131.494455, 0.490169)">
                            <g id="分组-3" transform="translate(139.435856, 327.085083)" fill-rule="nonzero" opacity="0.461123512">
                                <ellipse id="椭圆形-copy" fill="url(#linearGradient-4)" cx="76.1179219" cy="25.0938614" rx="75.4222269" ry="24.8594636"></ellipse>
                                <ellipse id="椭圆形" fill="url(#linearGradient-5)" cx="83.4862385" cy="23.9033304" rx="61.6659716" ry="20.0787975"></ellipse>
                                <ellipse id="椭圆形-copy-2" fill="url(#linearGradient-6)" cx="87.7554212" cy="24.8594636" rx="25.1407423" ry="8.60519893"></ellipse>
                            </g>
                            <path d="M129.067405,249.843848 L72.5168084,216.168594 C63.9371105,211.059479 53.1893983,211.315517 44.8627188,216.827384 L9.87554869,239.987232 C6.65185119,242.121167 5.76842406,246.464386 7.90235897,249.688083 C8.46080431,250.531717 9.19548609,251.244272 10.0557974,251.776665 L87.1298528,299.473057 C90.4172798,301.507443 91.43307,305.821625 89.3986836,309.109052 C88.8413342,310.00969 88.0868757,310.772111 87.1921384,311.338885 L42.9873147,339.340545 C39.7214259,341.40933 38.7509821,345.733938 40.8197678,348.999827 C41.3957467,349.909096 42.1736505,350.673294 43.0930136,351.23302 L105.643162,389.31477 L105.643162,389.31477" id="路径-7" stroke="#2DB4FC" stroke-width="2" fill-rule="nonzero"></path>
                            <path d="M207.69482,153.36054 L145.331682,113.996791 C140.661381,111.048887 139.265103,104.873112 142.213007,100.202811 C143.040417,98.8919625 144.161245,97.791418 145.486983,96.9880813 L217.199233,53.5337497 L217.199233,53.5337497" id="路径-8" stroke="#2DB4FC" stroke-width="2" fill-rule="nonzero"></path>
                            <path d="M276.817822,181.268371 L322.57683,155.434576 C331.949098,150.14335 343.437638,150.278143 352.683182,155.787807 L398.647113,183.178931 L398.647113,183.178931" id="路径-9" stroke="#2DB4FC" stroke-width="2" fill-rule="nonzero"></path>
                            <path d="M281.611173,119.899031 C247.228708,119.070482 217.892576,120.332871 193.602779,123.686197 C169.312982,127.039523 142.184947,136.396484 112.218673,151.757078 C112.218673,181.181798 112.218673,201.259309 112.218673,211.989613 C112.218673,228.085068 118.191688,261.332719 141.554805,293.484188 C157.130216,314.918501 181.892434,332.168908 215.841459,345.235408 C246.43936,315.448408 264.261848,292.409814 269.308924,276.119629 C276.879539,251.68435 281.611173,218.182541 281.611173,187.547776 C281.611173,170.25059 291.074441,148.385846 291.074441,128.038095 C291.074441,125.586564 287.920018,122.873543 281.611173,119.899031 Z" id="路径-2-copy-4" fill="url(#linearGradient-7)" fill-rule="nonzero"></path>
                            <path d="M291.074441,129.389773 C256.612638,127.935008 227.208814,128.878571 202.862968,132.220461 C178.517122,135.562351 151.326488,144.887401 121.291067,160.195611 C121.291067,189.519983 121.291067,209.529024 121.291067,220.222734 C121.291067,236.263299 127.277865,269.397564 150.694892,301.439387 C166.306243,322.800602 191.1256,339.992179 225.152964,353.014119 C255.821469,323.328702 273.685082,300.368677 278.743805,284.134046 C286.331889,259.7821 291.074441,226.394542 291.074441,195.864251 C291.074441,175.510724 291.074441,153.352564 291.074441,129.389773 Z" id="路径-2" fill="url(#linearGradient-8)" fill-rule="nonzero"></path>
                            <path d="M274.225709,152.57671 C247.392855,151.449897 224.498274,152.180749 205.541967,154.769266 C186.585659,157.357782 165.414326,164.580653 142.027968,176.437879 C142.027968,199.151555 142.027968,214.649887 142.027968,222.932876 C142.027968,235.35736 146.689444,261.022051 164.922549,285.840572 C177.077952,302.386253 196.402948,315.702273 222.897536,325.788631 C246.77683,302.795302 260.685903,285.011237 264.624756,272.436436 C270.533035,253.574235 274.225709,227.713352 274.225709,204.065612 C274.225709,188.300452 274.225709,171.137485 274.225709,152.57671 Z" id="路径-2-copy" fill="url(#linearGradient-9)" fill-rule="nonzero"></path>
                            <path d="M265.599422,151.903978 C268.428513,151.982452 271.303943,152.082642 274.225709,152.204549 L274.225709,152.204549 L274.225709,203.756492 C274.225709,227.433185 270.504593,253.325731 264.550807,272.211026 C260.581617,284.801223 246.565412,302.607062 222.502194,325.628543 C222.028439,325.449346 221.556958,325.269131 221.087753,325.087898 C240.080426,305.61721 251.391187,290.13151 255.020466,278.629862 C261.531081,257.996893 265.600215,229.708213 265.600215,203.840444 Z" id="合并形状" fill="url(#linearGradient-10)" fill-rule="nonzero"></path>
                            <path d="" id="路径-5" stroke="#979797" fill-rule="nonzero"></path>
                            <path d="M215.898697,200.92216 C220.181309,200.92216 224.061167,202.687489 226.868577,205.550023 C229.20567,207.933005 230.798367,211.077516 231.251342,214.588559 L231.277,214.811 L232.216541,214.706959 C234.704954,214.539892 236.775272,215.406859 238.288606,216.850828 L238.482827,217.042406 C240.019128,218.60875 240.936133,220.843573 240.936133,223.261953 L240.936133,223.261953 L240.936133,244.337141 C240.936133,246.695728 239.994214,248.828551 238.479126,250.373372 C236.979106,251.90283 234.918881,252.857524 232.641626,252.901404 L232.641626,252.901404 L199.492869,256.185754 C197.085672,256.23192 194.898841,255.260352 193.327103,253.657704 C191.812088,252.112894 190.87022,249.98008 190.87022,247.621485 L190.87022,247.621485 L190.87022,226.546297 C190.87022,224.281643 191.757128,222.111579 193.327148,220.510307 C194.773485,219.035605 195.528556,218.695998 198.758466,218.035351 L198.758466,218.035351 L200.413684,217.733242 L200.413684,216.652017 C200.413684,212.315078 202.142008,208.39122 204.928616,205.549964 C207.736048,202.687476 211.615949,200.92216 215.898697,200.92216 Z" id="Fill-1-Copy-2" stroke="#83E1FF" stroke-width="6" fill="#EFF9FF"></path>
                            <path d="M216.411358,202.625709 L411.607676,205.925816 L411.607676,316.713468 L197.111968,252.127321 L197.274028,251.709926 C195.276659,250.873699 193.87022,248.871589 193.87022,246.534764 L193.87022,246.534764 L193.87022,225.358428 C193.87022,223.875544 194.448591,222.453038 195.4776,221.404173 C196.506907,220.355308 197.902888,219.76625 199.358195,219.76625 L199.358195,219.76625 L203.465226,219.76625 L203.465226,215.416661 C203.465226,208.352446 209.084879,202.625709 216.017666,202.625709 C216.148886,202.625709 216.279637,202.62776 216.409887,202.631834 L216.411358,202.625709 Z" id="合并形状" fill="url(#linearGradient-11)" opacity="0.735072545"></path>
                            <path d="M207.052805,216.658207 C207.052805,211.67687 211.01317,207.638913 215.898697,207.638913 C220.783928,207.638913 224.744589,211.67687 224.744589,216.658207 L224.744589,218.680688 L207.052805,219.77547 L207.052805,216.658207 Z M217.718072,241.585951 C217.718072,242.610632 216.903374,243.441006 215.898697,243.441006 C214.893724,243.441006 214.079026,242.610632 214.079026,241.585951 L214.079026,232.582133 C214.079026,231.557452 214.893724,230.726776 215.898697,230.726776 C216.903374,230.726776 217.718072,231.557452 217.718072,232.582133 L217.718072,241.585951 Z M228.383414,218.15432 L228.383414,216.652017 C228.383414,209.621544 222.793947,203.92216 215.898697,203.92216 C209.003151,203.92216 203.413684,209.621544 203.413684,216.652017 L203.413684,220.235244 L199.328715,220.98083 C197.094555,221.438665 196.492744,221.567074 195.468966,222.61093 C194.445484,223.654785 193.87022,225.070497 193.87022,226.546297 L193.87022,247.621485 C193.87022,250.695378 196.314019,253.187329 199.328715,253.187329 L232.477415,249.902985 C235.492111,249.902985 237.936133,247.411033 237.936133,244.337141 L237.936133,223.261953 C237.936133,220.188211 235.786576,217.506188 232.477415,217.696486 L228.383414,218.15432 Z" id="Fill-1" fill="#EFF9FF"></path>
                            <g id="分组" transform="translate(333.844298, 219.479582)">
                                <mask id="mask-13" fill="white">
                                    <use xlink:href="#path-12"></use>
                                </mask>
                                <use id="Mask" fill="#EFF9FF" xlink:href="#path-12"></use>
                                <ellipse id="椭圆形" fill="#2CB3FC" fill-rule="nonzero" mask="url(#mask-13)" cx="20.4325259" cy="35.6320021" rx="4.30158439" ry="4.31903056"></ellipse>
                                <ellipse id="椭圆形-copy-3" fill="#2CB3FC" fill-rule="nonzero" mask="url(#mask-13)" cx="34.4126751" cy="33.4724868" rx="4.30158439" ry="4.31903056"></ellipse>
                                <ellipse id="椭圆形-copy-4" fill="#2CB3FC" fill-rule="nonzero" mask="url(#mask-13)" cx="47.3174283" cy="32.3927292" rx="4.30158439" ry="4.31903056"></ellipse>
                            </g>
                            <g id="分组-13" transform="translate(56.488253, 323.195727)">
                                <path d="M71.7955409,43.4854804 L71.7955409,72.0164821 L71.3995452,72.0166148 C71.2616186,72.6380414 71.035142,73.2504228 70.7150928,73.8362555 C70.0997139,74.9626734 69.1835674,75.8925032 68.0706622,76.5201827 L44.2354832,89.9632442 C40.1255919,92.2812264 35.1209887,92.2968648 30.9969378,90.0046121 L5.70729061,75.9479805 C4.17096178,75.0940497 3.18079505,73.628361 2.87066095,72.0174234 L2.76611779,72.0164821 L2.76611779,43.4854804 L71.7955409,43.4854804 Z" id="合并形状" fill="url(#linearGradient-14)"></path>
                                <path d="M27.2811836,24.9091103 L56.167414,16.8821228 C59.360145,15.9949177 62.6675867,17.8639156 63.5547918,21.0566466 C63.8447644,22.1001532 63.84688,23.2026907 63.5609144,24.2473025 L55.5653256,53.4546088 C54.4499145,57.5291251 51.2742383,60.7170124 47.2040328,61.8480526 L18.3178024,69.8750401 C15.1250714,70.7622453 11.8176297,68.8932473 10.9304246,65.7005163 C10.640452,64.6570097 10.6383364,63.5544722 10.924302,62.5098604 L18.9198907,33.3025541 C20.0353019,29.2280378 23.2109781,26.0401505 27.2811836,24.9091103 Z" id="Rectangle-31-Copy-13" fill="#F5FBFF" transform="translate(37.242608, 43.378581) rotate(-315.000000) translate(-37.242608, -43.378581) "></path>
                                <rect id="Rectangle-33-Copy" fill="url(#linearGradient-15)" x="13.886008" y="-1.25152414e-13" width="46.9482561" height="44.6723542"></rect>
                                <path d="M31.9393605,29.286234 L49.7223644,24.3816924 C52.3843992,23.6475049 55.1375815,25.2103339 55.8717691,27.8723688 C56.1117242,28.7424037 56.1117149,29.6611649 55.8717422,30.5311949 L50.9671434,48.3129996 C49.8438852,52.3854136 46.6620217,55.5672126 42.5895849,56.6903882 L24.806581,61.5949297 C22.1445462,62.3291173 19.3913639,60.7662883 18.6571763,58.1042534 C18.4172212,57.2342185 18.4172305,56.3154573 18.6572032,55.4454272 L23.561802,37.6636226 C24.6850602,33.5912086 27.8669237,30.4094096 31.9393605,29.286234 Z" id="Rectangle-31-Copy-14" fill="url(#linearGradient-16)" transform="translate(37.264473, 42.988311) rotate(-315.000000) translate(-37.264473, -42.988311) "></path>
                                <path d="M31.4183411,30.4080036 L48.2364212,25.7695661 C50.8984552,25.0353754 53.6516394,26.5982011 54.3858301,29.2602351 C54.6257862,30.1302698 54.625778,31.049031 54.3858063,31.9190613 L49.7473276,48.736115 C48.6240743,52.8085304 45.4422145,55.9903331 41.369779,57.1135135 L24.5516989,61.751951 C21.8896648,62.4861418 19.1364807,60.923316 18.40229,58.261282 C18.1623339,57.3912473 18.1623421,56.4724862 18.4023138,55.6024558 L23.0407925,38.7854021 C24.1640458,34.7129868 27.3459056,31.531184 31.4183411,30.4080036 Z" id="Rectangle-31-Copy-15" fill="url(#linearGradient-17)" transform="translate(36.394060, 43.760759) rotate(-315.000000) translate(-36.394060, -43.760759) "></path>
                            </g>
                            <g id="分组-2" transform="translate(296.258666, 83.352142)" fill-rule="nonzero">
                                <rect id="矩形" fill="url(#linearGradient-18)" x="0" y="3.20487847" width="11.3476332" height="41.6634201"></rect>
                                <ellipse id="椭圆形" fill="#75EAFF" cx="5.67381659" cy="3.73902488" rx="5.67381659" ry="3.73902488"></ellipse>
                            </g>
                            <g id="分组-2-copy" transform="translate(257.376978, 101.502467)" fill-rule="nonzero">
                                <rect id="矩形" fill="url(#linearGradient-19)" x="0" y="3.2093982" width="10.9375" height="41.7221766"></rect>
                                <ellipse id="椭圆形" fill="#75EAFF" cx="5.46875" cy="3.7442979" rx="5.46875" ry="3.7442979"></ellipse>
                            </g>
                            <g id="分组-2-copy-3" transform="translate(94.073885, 139.099570)" fill-rule="nonzero">
                                <rect id="矩形" fill="url(#linearGradient-20)" x="0" y="3.2093982" width="10.9375" height="41.7221766"></rect>
                                <ellipse id="椭圆形" fill="#61E7FF" cx="5.46875" cy="3.7442979" rx="5.46875" ry="3.7442979"></ellipse>
                            </g>
                            <g id="分组-2-copy-5" transform="translate(126.475293, 97.613111)" fill-rule="nonzero">
                                <rect id="矩形" fill="url(#linearGradient-20)" x="0" y="3.2093982" width="10.9375" height="41.7221766"></rect>
                                <ellipse id="椭圆形" fill="#61E7FF" cx="5.46875" cy="3.7442979" rx="5.46875" ry="3.7442979"></ellipse>
                            </g>
                            <g id="分组-2-copy-4" transform="translate(123.883180, 157.249895)" fill-rule="nonzero">
                                <rect id="矩形" fill="url(#linearGradient-19)" x="0" y="3.2093982" width="10.9375" height="41.7221766"></rect>
                                <ellipse id="椭圆形" fill="#75EAFF" cx="5.46875" cy="3.7442979" rx="5.46875" ry="3.7442979"></ellipse>
                            </g>
                            <g id="分组-13-copy-3" transform="translate(379.545455, 138.636364)">
                                <path d="M43.5152965,28.2828217 L43.5147678,44.1251448 C44.5527981,46.1440414 44.590537,48.6286701 43.3967255,50.7567903 C42.7739336,51.8669957 41.8601932,52.7863592 40.7538295,53.4159504 L29.1687249,60.0086105 C25.5118701,62.0895931 21.0322482,62.1033344 17.3626954,60.0448256 L6.02317957,53.6836981 C2.6514723,51.7922716 1.45146758,47.5256588 3.342894,44.1539515 C3.42475783,44.0080189 3.51164873,43.8653836 3.60334339,43.7262704 L3.60482819,28.2828217 L43.5152965,28.2828217 Z" id="合并形状" fill="url(#linearGradient-21)"></path>
                                <path d="M19.2276588,15.7708359 L32.3761292,12.1606327 C35.5715742,11.2832526 38.8732512,13.1624155 39.7506312,16.3578605 C40.0340682,17.3901466 40.0361661,18.4794662 39.7567075,19.5128364 L36.1455398,32.8660584 C35.0358341,36.9694812 31.8380495,40.179607 27.7389316,41.3051104 L14.5904612,44.9153136 C11.3950163,45.7926936 8.09333928,43.9135307 7.21595925,40.7180858 C6.93252227,39.6857997 6.9304243,38.5964801 7.20988294,37.5631099 L10.8210506,24.2098879 C11.9307564,20.1064651 15.1285409,16.8963393 19.2276588,15.7708359 Z" id="Rectangle-31-Copy-13" fill="#F5FBFF" transform="translate(23.483295, 28.537973) rotate(-315.000000) translate(-23.483295, -28.537973) "></path>
                                <rect id="Rectangle-33-Copy" fill="url(#linearGradient-22)" x="10.1666586" y="1.19096652e-13" width="26.7868075" height="29.2255824"></rect>
                                <path d="M22.2936067,18.6546652 L28.7433796,16.8972017 C31.4076654,16.171225 34.1560162,17.742535 34.8819929,20.4068209 C35.1165137,21.2674964 35.1165044,22.1752425 34.8819661,23.0359132 L33.1245685,29.4849274 C32.0069314,33.5862514 28.8028936,36.7902241 24.7015468,37.9077777 L18.2517739,39.6652411 C15.5874881,40.3912178 12.8391373,38.8199078 12.1131606,36.155622 C11.8786398,35.2949465 11.878649,34.3872004 12.1131873,33.5265296 L13.870585,27.0775154 C14.9882221,22.9761914 18.1922599,19.7722188 22.2936067,18.6546652 Z" id="Rectangle-31-Copy-14" fill="url(#linearGradient-23)" transform="translate(23.497577, 28.281221) rotate(-315.000000) translate(-23.497577, -28.281221) "></path>
                                <path d="M21.9549269,19.3926542 L27.7727881,17.8073696 C30.437073,17.0813897 33.1854257,18.6526964 33.9114056,21.3169814 C34.1459274,22.1776567 34.1459192,23.0854028 33.9113819,23.9460738 L32.3261616,29.7632864 C31.2085294,33.8646118 28.0044953,37.0685882 23.9031499,38.1861467 L18.0852887,39.7714313 C15.4210037,40.4974112 12.6726511,38.9261044 11.9466712,36.2618195 C11.7121494,35.4011442 11.7121576,34.4933981 11.9466948,33.6327271 L13.5319151,27.8155145 C14.6495474,23.7141891 17.8535814,20.5102127 21.9549269,19.3926542 Z" id="Rectangle-31-Copy-15" fill="url(#linearGradient-24)" transform="translate(22.929038, 28.789400) rotate(-315.000000) translate(-22.929038, -28.789400) "></path>
                            </g>
                            <g id="分组-13-copy-4" transform="translate(36.363636, 157.954545)">
                                <path d="M43.5152965,28.2828217 L43.5147678,44.1251448 C44.5527981,46.1440414 44.590537,48.6286701 43.3967255,50.7567903 C42.7739336,51.8669957 41.8601932,52.7863592 40.7538295,53.4159504 L29.1687249,60.0086105 C25.5118701,62.0895931 21.0322482,62.1033344 17.3626954,60.0448256 L6.02317957,53.6836981 C2.6514723,51.7922716 1.45146758,47.5256588 3.342894,44.1539515 C3.42475783,44.0080189 3.51164873,43.8653836 3.60334339,43.7262704 L3.60482819,28.2828217 L43.5152965,28.2828217 Z" id="合并形状" fill="url(#linearGradient-21)"></path>
                                <path d="M19.2276588,15.7708359 L32.3761292,12.1606327 C35.5715742,11.2832526 38.8732512,13.1624155 39.7506312,16.3578605 C40.0340682,17.3901466 40.0361661,18.4794662 39.7567075,19.5128364 L36.1455398,32.8660584 C35.0358341,36.9694812 31.8380495,40.179607 27.7389316,41.3051104 L14.5904612,44.9153136 C11.3950163,45.7926936 8.09333928,43.9135307 7.21595925,40.7180858 C6.93252227,39.6857997 6.9304243,38.5964801 7.20988294,37.5631099 L10.8210506,24.2098879 C11.9307564,20.1064651 15.1285409,16.8963393 19.2276588,15.7708359 Z" id="Rectangle-31-Copy-13" fill="#F5FBFF" transform="translate(23.483295, 28.537973) rotate(-315.000000) translate(-23.483295, -28.537973) "></path>
                                <rect id="Rectangle-33-Copy" fill="url(#linearGradient-25)" x="10.1666586" y="1.19096652e-13" width="26.7868075" height="29.2255824"></rect>
                                <path d="M22.2936067,18.6546652 L28.7433796,16.8972017 C31.4076654,16.171225 34.1560162,17.742535 34.8819929,20.4068209 C35.1165137,21.2674964 35.1165044,22.1752425 34.8819661,23.0359132 L33.1245685,29.4849274 C32.0069314,33.5862514 28.8028936,36.7902241 24.7015468,37.9077777 L18.2517739,39.6652411 C15.5874881,40.3912178 12.8391373,38.8199078 12.1131606,36.155622 C11.8786398,35.2949465 11.878649,34.3872004 12.1131873,33.5265296 L13.870585,27.0775154 C14.9882221,22.9761914 18.1922599,19.7722188 22.2936067,18.6546652 Z" id="Rectangle-31-Copy-14" fill="url(#linearGradient-23)" transform="translate(23.497577, 28.281221) rotate(-315.000000) translate(-23.497577, -28.281221) "></path>
                                <path d="M21.9549269,19.3926542 L27.7727881,17.8073696 C30.437073,17.0813897 33.1854257,18.6526964 33.9114056,21.3169814 C34.1459274,22.1776567 34.1459192,23.0854028 33.9113819,23.9460738 L32.3261616,29.7632864 C31.2085294,33.8646118 28.0044953,37.0685882 23.9031499,38.1861467 L18.0852887,39.7714313 C15.4210037,40.4974112 12.6726511,38.9261044 11.9466712,36.2618195 C11.7121494,35.4011442 11.7121576,34.4933981 11.9466948,33.6327271 L13.5319151,27.8155145 C14.6495474,23.7141891 17.8535814,20.5102127 21.9549269,19.3926542 Z" id="Rectangle-31-Copy-15" fill="url(#linearGradient-24)" transform="translate(22.929038, 28.789400) rotate(-315.000000) translate(-22.929038, -28.789400) "></path>
                            </g>
                            <g id="分组-13-copy-6" transform="translate(197.727273, 0.000000)">
                                <path d="M43.5152965,28.2828217 L43.5147678,44.1251448 C44.5527981,46.1440414 44.590537,48.6286701 43.3967255,50.7567903 C42.7739336,51.8669957 41.8601932,52.7863592 40.7538295,53.4159504 L29.1687249,60.0086105 C25.5118701,62.0895931 21.0322482,62.1033344 17.3626954,60.0448256 L6.02317957,53.6836981 C2.6514723,51.7922716 1.45146758,47.5256588 3.342894,44.1539515 C3.42475783,44.0080189 3.51164873,43.8653836 3.60334339,43.7262704 L3.60482819,28.2828217 L43.5152965,28.2828217 Z" id="合并形状" fill="url(#linearGradient-21)"></path>
                                <path d="M19.2276588,15.7708359 L32.3761292,12.1606327 C35.5715742,11.2832526 38.8732512,13.1624155 39.7506312,16.3578605 C40.0340682,17.3901466 40.0361661,18.4794662 39.7567075,19.5128364 L36.1455398,32.8660584 C35.0358341,36.9694812 31.8380495,40.179607 27.7389316,41.3051104 L14.5904612,44.9153136 C11.3950163,45.7926936 8.09333928,43.9135307 7.21595925,40.7180858 C6.93252227,39.6857997 6.9304243,38.5964801 7.20988294,37.5631099 L10.8210506,24.2098879 C11.9307564,20.1064651 15.1285409,16.8963393 19.2276588,15.7708359 Z" id="Rectangle-31-Copy-13" fill="#F5FBFF" transform="translate(23.483295, 28.537973) rotate(-315.000000) translate(-23.483295, -28.537973) "></path>
                                <rect id="Rectangle-33-Copy" fill="url(#linearGradient-25)" x="10.1666586" y="1.19096652e-13" width="26.7868075" height="29.2255824"></rect>
                                <path d="M22.2936067,18.6546652 L28.7433796,16.8972017 C31.4076654,16.171225 34.1560162,17.742535 34.8819929,20.4068209 C35.1165137,21.2674964 35.1165044,22.1752425 34.8819661,23.0359132 L33.1245685,29.4849274 C32.0069314,33.5862514 28.8028936,36.7902241 24.7015468,37.9077777 L18.2517739,39.6652411 C15.5874881,40.3912178 12.8391373,38.8199078 12.1131606,36.155622 C11.8786398,35.2949465 11.878649,34.3872004 12.1131873,33.5265296 L13.870585,27.0775154 C14.9882221,22.9761914 18.1922599,19.7722188 22.2936067,18.6546652 Z" id="Rectangle-31-Copy-14" fill="url(#linearGradient-23)" transform="translate(23.497577, 28.281221) rotate(-315.000000) translate(-23.497577, -28.281221) "></path>
                                <path d="M21.9549269,19.3926542 L27.7727881,17.8073696 C30.437073,17.0813897 33.1854257,18.6526964 33.9114056,21.3169814 C34.1459274,22.1776567 34.1459192,23.0854028 33.9113819,23.9460738 L32.3261616,29.7632864 C31.2085294,33.8646118 28.0044953,37.0685882 23.9031499,38.1861467 L18.0852887,39.7714313 C15.4210037,40.4974112 12.6726511,38.9261044 11.9466712,36.2618195 C11.7121494,35.4011442 11.7121576,34.4933981 11.9466948,33.6327271 L13.5319151,27.8155145 C14.6495474,23.7141891 17.8535814,20.5102127 21.9549269,19.3926542 Z" id="Rectangle-31-Copy-15" fill="url(#linearGradient-24)" transform="translate(22.929038, 28.789400) rotate(-315.000000) translate(-22.929038, -28.789400) "></path>
                            </g>
                            <g id="分组-15" transform="translate(25.382902, 214.133687)">
                                <polygon id="Rectangle-31-Copy-9" fill="#D7F1FF" transform="translate(5.863839, 5.993338) rotate(-315.000000) translate(-5.863839, -5.993338) " points="3.58376559 3.67677006 9.966455 1.82684451 8.14391326 8.30990622 1.76122385 10.1598318"></polygon>
                                <polygon id="Rectangle-35" fill="#2CB3FC" points="0 5.93700494 5.89225589 9.21579554 5.89225589 14.6023801 0 11.3235895"></polygon>
                                <polygon id="Rectangle-35-Copy" fill="#70CDFF" transform="translate(8.838384, 10.269693) scale(-1, 1) translate(-8.838384, -10.269693) " points="5.89225589 5.93700494 11.7845118 9.21579554 11.7845118 14.6023801 5.89225589 11.3235895"></polygon>
                            </g>
                            <g id="分组-15-copy-4" transform="translate(90.185717, 219.319494)">
                                <polygon id="Rectangle-31-Copy-9" fill="#D7F1FF" transform="translate(5.863839, 5.993338) rotate(-315.000000) translate(-5.863839, -5.993338) " points="3.58376559 3.67677006 9.966455 1.82684451 8.14391326 8.30990622 1.76122385 10.1598318"></polygon>
                                <polygon id="Rectangle-35" fill="#2CB3FC" points="0 5.93700494 5.89225589 9.21579554 5.89225589 14.6023801 0 11.3235895"></polygon>
                                <polygon id="Rectangle-35-Copy" fill="#70CDFF" transform="translate(8.838384, 10.269693) scale(-1, 1) translate(-8.838384, -10.269693) " points="5.89225589 5.93700494 11.7845118 9.21579554 11.7845118 14.6023801 5.89225589 11.3235895"></polygon>
                            </g>
                            <g id="分组-15-copy" transform="translate(59.080366, 315.256928)">
                                <polygon id="Rectangle-31-Copy-9" fill="#D7F1FF" transform="translate(5.863839, 5.993338) rotate(-315.000000) translate(-5.863839, -5.993338) " points="3.58376559 3.67677006 9.966455 1.82684451 8.14391326 8.30990622 1.76122385 10.1598318"></polygon>
                                <polygon id="Rectangle-35" fill="#2CB3FC" points="0 5.93700494 5.89225589 9.21579554 5.89225589 14.6023801 0 11.3235895"></polygon>
                                <polygon id="Rectangle-35-Copy" fill="#70CDFF" transform="translate(8.838384, 10.269693) scale(-1, 1) translate(-8.838384, -10.269693) " points="5.89225589 5.93700494 11.7845118 9.21579554 11.7845118 14.6023801 5.89225589 11.3235895"></polygon>
                            </g>
                            <g id="分组-15-copy-2" transform="translate(302.738948, 153.200451)">
                                <polygon id="Rectangle-31-Copy-9" fill="#D7F1FF" transform="translate(5.863839, 5.993338) rotate(-315.000000) translate(-5.863839, -5.993338) " points="3.58376559 3.67677006 9.966455 1.82684451 8.14391326 8.30990622 1.76122385 10.1598318"></polygon>
                                <polygon id="Rectangle-35" fill="#2CB3FC" points="0 5.93700494 5.89225589 9.21579554 5.89225589 14.6023801 0 11.3235895"></polygon>
                                <polygon id="Rectangle-35-Copy" fill="#70CDFF" transform="translate(8.838384, 10.269693) scale(-1, 1) translate(-8.838384, -10.269693) " points="5.89225589 5.93700494 11.7845118 9.21579554 11.7845118 14.6023801 5.89225589 11.3235895"></polygon>
                            </g>
                            <g id="分组-15-copy-5" transform="translate(359.765424, 153.200451)">
                                <polygon id="Rectangle-31-Copy-9" fill="#D7F1FF" transform="translate(5.863839, 5.993338) rotate(-315.000000) translate(-5.863839, -5.993338) " points="3.58376559 3.67677006 9.966455 1.82684451 8.14391326 8.30990622 1.76122385 10.1598318"></polygon>
                                <polygon id="Rectangle-35" fill="#2CB3FC" points="0 5.93700494 5.89225589 9.21579554 5.89225589 14.6023801 0 11.3235895"></polygon>
                                <polygon id="Rectangle-35-Copy" fill="#70CDFF" transform="translate(8.838384, 10.269693) scale(-1, 1) translate(-8.838384, -10.269693) " points="5.89225589 5.93700494 11.7845118 9.21579554 11.7845118 14.6023801 5.89225589 11.3235895"></polygon>
                            </g>
                            <g id="分组-15-copy-3" transform="translate(162.764869, 72.820439)">
                                <polygon id="Rectangle-31-Copy-9" fill="#D7F1FF" transform="translate(5.863839, 5.993338) rotate(-315.000000) translate(-5.863839, -5.993338) " points="3.58376559 3.67677006 9.966455 1.82684451 8.14391326 8.30990622 1.76122385 10.1598318"></polygon>
                                <polygon id="Rectangle-35" fill="#2CB3FC" points="0 5.93700494 5.89225589 9.21579554 5.89225589 14.6023801 0 11.3235895"></polygon>
                                <polygon id="Rectangle-35-Copy" fill="#70CDFF" transform="translate(8.838384, 10.269693) scale(-1, 1) translate(-8.838384, -10.269693) " points="5.89225589 5.93700494 11.7845118 9.21579554 11.7845118 14.6023801 5.89225589 11.3235895"></polygon>
                            </g>
                        </g>
                    </g>
                </g>
            </g>
        </g>
    </g>
</svg>