<?xml version="1.0" encoding="UTF-8"?>
<svg width="24px" height="24px" viewBox="0 0 24 24" version="1.1" xmlns="http://www.w3.org/2000/svg" xmlns:xlink="http://www.w3.org/1999/xlink">
    <title>server</title>
    <g id="聊天" stroke="none" stroke-width="1" fill="none" fill-rule="evenodd">
        <g id="背景" transform="translate(-1184.000000, -228.000000)">
            <g id="分组-copy备份" transform="translate(1184.000000, 228.000000)">
                <circle id="Oval-7-Copy" fill="#EAF6FF" cx="12" cy="12" r="12"></circle>
                <path d="M11.9428272,17.0752748 C12.5314832,17.0752748 13.0220565,17.5581338 13.0220565,18.1376276 C13.0220565,18.7171213 12.5314832,19.2 11.9428272,19.2 C11.3542311,19.2 10.8636578,18.7171213 10.8636578,18.1376276 C10.8636578,17.5581338 11.3542311,17.0752748 11.9428272,17.0752748 Z M16.8808553,17.6869342 C17.142509,17.6869342 17.3386745,17.880125 17.3386745,18.1376276 C17.3386745,18.3952284 17.142509,18.5883405 16.8808553,18.5883405 L13.218222,18.5883405 C13.2836304,18.4595401 13.3163845,18.2985937 13.3163845,18.1376276 C13.3163845,17.9766811 13.2836304,17.8478807 13.218222,17.6869342 L16.8808553,17.6869342 Z M10.6347581,17.6869342 C10.5693297,17.815715 10.5366555,17.9766811 10.5366555,18.1376276 C10.5366555,18.2985937 10.5693297,18.4595401 10.6347581,18.5883405 L6.97212486,18.5883405 C6.710531,18.5883405 6.51428571,18.3952284 6.51428571,18.1376276 C6.51428571,17.880125 6.710531,17.6869342 6.97212486,17.6869342 L10.6347581,17.6869342 Z M12.4006464,15.8519558 L12.4006464,16.7533622 L11.4849881,16.7533622 L11.4849881,15.8519558 L12.4006464,15.8519558 Z" id="合并形状" fill="#61C7FF" opacity="0.69547526"></path>
                <path d="M15.5073578,7.32075161 L16.4230161,7.32075161 L16.4230161,6.41926668 L15.5073578,6.41926668 L15.5073578,7.32075161 Z M14.4282083,7.10498097 C14.1666344,7.10498097 13.9703891,7.29817175 13.9703891,7.55577255 C13.9703891,7.81327511 14.1666344,8.00646589 14.4282083,8.00646589 C14.689862,8.00646589 14.8860475,7.81327511 14.8860475,7.55577255 C14.8860475,7.29817175 14.689862,7.10498097 14.4282083,7.10498097 L14.4282083,7.10498097 Z M12.8584855,7.10498097 C12.5968917,7.10498097 12.4006464,7.29817175 12.4006464,7.55577255 C12.4006464,7.81327511 12.5968917,8.00646589 12.8584855,8.00646589 C13.1201393,8.00646589 13.3163845,7.81327511 13.3163845,7.55577255 C13.3163845,7.29817175 13.1201393,7.10498097 12.8584855,7.10498097 L12.8584855,7.10498097 Z M16.7500983,8.90787222 L7.13561602,8.90787222 C6.80861373,8.90787222 6.51428571,8.65029106 6.51428571,8.29613417 L6.51428571,6.78308803 C6.51428571,6.46117544 6.77585961,6.17142857 7.13561602,6.17142857 L16.7500983,6.17142857 C17.0771006,6.17142857 17.3714286,6.42893113 17.3714286,6.78308803 L17.3714286,8.29613417 C17.3714286,8.65029106 17.0771006,8.90787222 16.7500983,8.90787222 L16.7500983,8.90787222 Z M15.5073578,11.3013998 L16.4230161,11.3013998 L16.4230161,10.3999935 L15.5073578,10.3999935 L15.5073578,11.3013998 Z M14.4282083,10.3999935 C14.1666344,10.3999935 13.9703891,10.5931842 13.9703891,10.8506868 C13.9703891,11.1082876 14.1666344,11.3013998 14.4282083,11.3013998 C14.689862,11.3013998 14.8860475,11.1082876 14.8860475,10.8506868 C14.8860475,10.6253499 14.689862,10.3999935 14.4282083,10.3999935 L14.4282083,10.3999935 Z M12.8584855,10.3999935 C12.5968917,10.3999935 12.4006464,10.5931842 12.4006464,10.8506868 C12.4006464,11.1082876 12.5968917,11.3013998 12.8584855,11.3013998 C13.1201393,11.3013998 13.3163845,11.1082876 13.3163845,10.8506868 C13.3490588,10.6253499 13.1201393,10.3999935 12.8584855,10.3999935 L12.8584855,10.3999935 Z M16.7500983,12.2350504 L7.13561602,12.2350504 C6.80861373,12.2350504 6.51428571,11.9774496 6.51428571,11.6233124 L6.51428571,10.1102466 C6.51428571,9.78833399 6.77585961,9.49858712 7.13561602,9.49858712 L16.7500983,9.49858712 C17.0771006,9.49858712 17.3714286,9.75616828 17.3714286,10.1102466 L17.3714286,11.6233124 C17.3714286,11.9774496 17.0771006,12.2350504 16.7500983,12.2350504 L16.7500983,12.2350504 Z M15.5073578,14.6285583 L16.4230161,14.6285583 L16.4230161,13.727152 L15.5073578,13.727152 L15.5073578,14.6285583 Z M14.4282083,13.727152 C14.1666344,13.727152 13.9703891,13.9203428 13.9703891,14.177865 C13.9703891,14.4354461 14.1666344,14.6285583 14.4282083,14.6285583 C14.689862,14.6285583 14.8860475,14.4354461 14.8860475,14.177865 C14.8860475,13.9203428 14.689862,13.727152 14.4282083,13.727152 L14.4282083,13.727152 Z M12.8584855,13.727152 C12.5968917,13.727152 12.4006464,13.9203428 12.4006464,14.177865 C12.4006464,14.4354461 12.5968917,14.6285583 12.8584855,14.6285583 C13.1201393,14.6285583 13.3163845,14.4354461 13.3163845,14.177865 C13.3490588,13.9203428 13.1201393,13.727152 12.8584855,13.727152 L12.8584855,13.727152 Z M16.7500983,15.562209 L7.13561602,15.562209 C6.80861373,15.562209 6.51428571,15.3046278 6.51428571,14.9505495 L6.51428571,13.4373855 C6.51428571,13.1154925 6.77585961,12.8257457 7.13561602,12.8257457 L16.7500983,12.8257457 C17.0771006,12.8257457 17.3714286,13.0833465 17.3714286,13.4373855 L17.3714286,14.9505495 C17.3714286,15.2724621 17.0771006,15.562209 16.7500983,15.562209 L16.7500983,15.562209 Z" id="Fill-1" fill="#61C7FF"></path>
            </g>
        </g>
    </g>
</svg>