<?xml version="1.0" encoding="UTF-8"?>
<svg width="100px" height="100px" viewBox="0 0 100 100" version="1.1" xmlns="http://www.w3.org/2000/svg" xmlns:xlink="http://www.w3.org/1999/xlink">
    <title>切片</title>
    <g id="团队管理" stroke="none" stroke-width="1" fill="none" fill-rule="evenodd">
        <g id="团队管理-负责人" transform="translate(-30.000000, -170.000000)">
            <g id="分组" transform="translate(30.000000, 170.000000)">
                <rect id="Rectangle" fill="#EAF6FF" x="0" y="0" width="100" height="100" rx="14"></rect>
                <g id="Group" transform="translate(20.000000, 24.000000)" fill="#32B2F7">
                    <path d="M26.3255814,0 L33.6744186,0 C35.8835576,-8.49901461e-16 37.6744186,1.790861 37.6744186,4 L37.6744186,11.3488372 C37.6744186,13.5579762 35.8835576,15.3488372 33.6744186,15.3488372 L26.3255814,15.3488372 C24.1164424,15.3488372 22.3255814,13.5579762 22.3255814,11.3488372 L22.3255814,4 C22.3255814,1.790861 24.1164424,-3.82769592e-17 26.3255814,0 Z" id="Rectangle-Copy"></path>
                    <path d="M26.3255814,36.2790698 L33.6744186,36.2790698 C35.8835576,36.2790698 37.6744186,38.0699308 37.6744186,40.2790698 L37.6744186,47.627907 C37.6744186,49.837046 35.8835576,51.627907 33.6744186,51.627907 L26.3255814,51.627907 C24.1164424,51.627907 22.3255814,49.837046 22.3255814,47.627907 L22.3255814,40.2790698 C22.3255814,38.0699308 24.1164424,36.2790698 26.3255814,36.2790698 Z" id="Rectangle-Copy-2"></path>
                    <rect id="Rectangle-Copy-3" x="0" y="36.2790698" width="15.3488372" height="15.3488372" rx="4"></rect>
                    <rect id="Rectangle-Copy-4" x="44.6511628" y="36.2790698" width="15.3488372" height="15.3488372" rx="4"></rect>
                    <path d="M29.697408,11.1627907 C30.8073168,11.1627907 31.7070757,12.0625496 31.7070757,13.1724584 L31.7063953,23.2207907 L51.8037529,23.220797 L51.8037529,23.220797 C52.9136617,23.220797 53.8134206,24.1205559 53.8134206,25.2304647 L53.8134206,37.2884711 C53.8134206,38.3983799 52.9136617,39.2981388 51.8037529,39.2981388 C50.6938441,39.2981388 49.7940852,38.3983799 49.7940852,37.2884711 L49.7933953,27.2397907 L31.7063953,27.2397907 L31.7070757,38.2933049 C31.7070757,39.4032137 30.8073168,40.3029726 29.697408,40.3029726 C28.5874992,40.3029726 27.6877403,39.4032137 27.6877403,38.2933049 L27.6873953,27.2397907 L9.60039535,27.2397907 L9.60073079,37.2884711 C9.60073079,38.3983799 8.7009719,39.2981388 7.59106307,39.2981388 C6.48115423,39.2981388 5.58139535,38.3983799 5.58139535,37.2884711 L5.58139535,25.2304647 C5.58139535,24.1205559 6.48115423,23.220797 7.59106307,23.220797 L27.6873953,23.2207907 L27.6877403,13.1724584 C27.6877403,12.0625496 28.5874992,11.1627907 29.697408,11.1627907 Z" id="Combined-Shape" opacity="0.596976902"></path>
                </g>
            </g>
        </g>
    </g>
</svg>