<?xml version="1.0" encoding="UTF-8"?>
<svg width="101px" height="52px" viewBox="0 0 101 52" version="1.1" xmlns="http://www.w3.org/2000/svg" xmlns:xlink="http://www.w3.org/1999/xlink">
    <title>形状结合</title>
    <g id="页面-1" stroke="none" stroke-width="1" fill="none" fill-rule="evenodd" opacity="0.200763081">
        <g id="公安版" transform="translate(-1101.000000, -1048.000000)" fill="#32B2F7">
            <path d="M1198.30516,1077.27237 C1198.82233,1077.27237 1199.24158,1077.69162 1199.24158,1078.20879 L1199.24158,1078.20879 L1199.24158,1093.94568 L1199.24158,1093.94568 L1199.23528,1094.05489 C1199.18119,1094.52061 1198.78539,1094.8821 1198.30516,1094.8821 L1198.30516,1094.8821 L1181.83124,1094.88201 L1171.23985,1099.46961 C1171.12236,1099.5205 1170.99569,1099.54676 1170.86766,1099.54676 C1170.35049,1099.54676 1169.93124,1099.12751 1169.93124,1098.61034 L1169.93124,1098.61034 L1169.93124,1078.20879 C1169.93124,1077.69162 1170.35049,1077.27237 1170.86766,1077.27237 L1170.86766,1077.27237 Z M1134.74643,1048.92531 L1134.74643,1052.62166 C1134.74643,1054.02979 1134.66717,1055.38952 1134.50866,1056.68764 C1134.35014,1057.99457 1134.09476,1059.22228 1133.7425,1060.38399 C1134.86972,1060.94725 1136.13784,1061.58531 1137.54686,1062.28497 C1138.95588,1062.98904 1140.3649,1063.70191 1141.77392,1064.41918 C1143.18294,1065.14525 1144.53031,1065.83171 1145.81604,1066.48297 C1147.10177,1067.13864 1148.20257,1067.68869 1149.11843,1068.14633 L1145.8953,1073.63805 C1145.01466,1073.11 1143.9667,1072.50274 1142.75142,1071.81628 C1141.53614,1071.13421 1140.25041,1070.42135 1138.89423,1069.68208 C1137.53805,1068.94281 1136.19948,1068.22114 1134.87852,1067.51707 C1133.55757,1066.8086 1132.35109,1066.19255 1131.2591,1065.6689 C1130.8364,1066.26295 1130.37847,1066.8174 1129.88531,1067.32785 C1129.39215,1067.8427 1128.84616,1068.30475 1128.24732,1068.72719 L1134.64075,1068.72719 L1134.64075,1074.1661 C1134.64075,1074.65895 1134.63195,1075.12539 1134.61433,1075.56984 C1134.59672,1076.00548 1134.5703,1076.45432 1134.53508,1076.91196 C1134.64075,1078.56652 1134.95778,1080.10667 1135.48616,1081.5324 C1136.01455,1082.95814 1136.75428,1084.19905 1137.70537,1085.25516 C1138.65646,1086.31126 1139.84532,1087.13853 1141.27195,1087.73699 C1142.69858,1088.33985 1144.39822,1088.63468 1146.37084,1088.63468 L1148.00883,1088.63468 L1148.00883,1094.76006 L1146.00098,1094.76006 C1142.23185,1094.76006 1139.16723,1094.144 1136.80712,1092.91188 C1134.44701,1091.68417 1132.61529,1090.02521 1131.31194,1087.94821 C1129.93815,1090.02521 1128.0712,1091.68417 1125.71109,1092.91188 C1123.35098,1094.144 1120.37443,1094.76006 1116.78142,1094.76006 L1114.72073,1094.76006 L1114.72073,1088.8987 C1114.22758,1089.25073 1113.72561,1089.62917 1113.21484,1090.03401 C1112.70407,1090.43885 1112.16688,1090.87009 1111.60328,1091.33213 C1111.00444,1091.82058 1110.37919,1092.10661 1109.72752,1092.17261 C1109.07585,1092.24302 1108.48582,1092.14621 1107.95744,1091.88218 C1107.42906,1091.61816 1106.98874,1091.20012 1106.63648,1090.64127 C1106.28423,1090.08241 1106.1081,1089.42675 1106.1081,1088.68748 L1106.1081,1069.73488 L1101.45833,1069.73488 L1101.45833,1063.39388 L1106.68932,1063.39388 C1107.74608,1063.39388 1108.63553,1063.47749 1109.35765,1063.6315 C1110.07977,1063.79432 1110.67861,1064.06274 1111.15415,1064.44998 C1111.6297,1064.83722 1111.97314,1065.37407 1112.1845,1066.06493 C1112.39585,1066.7514 1112.50153,1067.63588 1112.50153,1068.72719 L1112.50153,1082.66771 L1115.51331,1080.23868 L1117.36265,1086.89651 L1114.98492,1088.63468 L1116.4644,1088.63468 C1118.5427,1088.63468 1120.32159,1088.27384 1121.80106,1087.55217 C1123.28053,1086.8305 1124.49581,1085.85801 1125.4469,1084.6215 C1126.39799,1083.38938 1127.09369,1081.95484 1127.53401,1080.32229 C1127.97433,1078.68093 1128.19449,1076.94717 1128.19449,1075.11659 L1128.19449,1068.77999 C1126.82069,1069.80089 1125.20913,1070.58416 1123.35979,1071.13421 C1121.51045,1071.67547 1119.38811,1071.94829 1116.99278,1071.94829 L1114.61506,1071.94829 L1114.61506,1065.7173 L1116.62291,1065.7173 C1118.70121,1065.7173 1120.46249,1065.41807 1121.90673,1064.81962 C1123.35098,1064.22556 1124.53103,1063.38508 1125.4469,1062.31138 C1126.36276,1061.24208 1127.02324,1059.96155 1127.42833,1058.48301 C1127.83342,1057.00447 1128.03597,1055.38952 1128.03597,1053.62495 L1128.03597,1048.92531 L1134.74643,1048.92531 Z M1165.73943,1048.94641 L1165.73943,1094.76006 L1159.20677,1094.76006 L1159.20677,1072.19591 C1158.71506,1072.37165 1158.22336,1072.48587 1157.73165,1072.53859 C1157.23995,1072.59131 1156.73068,1072.61767 1156.20385,1072.61767 L1153.67508,1072.61767 L1153.67508,1066.55488 L1155.51898,1066.55488 C1156.46727,1066.55488 1157.30141,1066.14191 1158.02141,1065.32035 C1158.74141,1064.49001 1159.10141,1063.09733 1159.10141,1061.12472 L1159.10141,1048.94641 L1165.73943,1048.94641 Z M1192.74923,1083.30485 L1176.76573,1083.30485 C1176.45543,1083.30485 1176.20388,1083.5564 1176.20388,1083.8667 L1176.20388,1083.8667 L1176.20388,1090.5383 C1176.20388,1090.59903 1176.21865,1090.65886 1176.24692,1090.71262 C1176.3432,1090.89572 1176.56968,1090.9661 1176.75277,1090.86982 L1176.75277,1090.86982 L1180.17535,1089.07012 L1192.74923,1089.07003 C1193.05953,1089.07003 1193.31108,1088.81848 1193.31108,1088.50818 L1193.31108,1088.50818 L1193.31108,1083.8667 C1193.31108,1083.5564 1193.05953,1083.30485 1192.74923,1083.30485 L1192.74923,1083.30485 Z M1142.61933,1072.0011 L1147.11058,1075.69745 C1146.51175,1076.40151 1145.94814,1077.05718 1145.41975,1077.65123 C1144.89137,1078.24969 1144.36299,1078.85255 1143.83461,1079.4466 C1143.30622,1080.04506 1142.75142,1080.66552 1142.1702,1081.29478 C1141.58898,1081.92844 1140.94612,1082.63251 1140.24161,1083.40698 L1135.75036,1079.34099 C1136.49009,1078.63693 1137.15057,1077.99447 1137.73179,1077.41801 C1138.31301,1076.83276 1138.86781,1076.2651 1139.39619,1075.69745 C1139.92458,1075.13859 1140.44415,1074.55334 1140.95492,1073.95488 C1141.46569,1073.36083 1142.02049,1072.70516 1142.61933,1072.0011 Z M1119.15915,1072.10671 C1119.82843,1072.74037 1120.44488,1073.32562 1121.00848,1073.84927 C1121.57209,1074.37732 1122.1357,1074.90537 1122.69931,1075.43342 C1123.26292,1075.96587 1123.83533,1076.51593 1124.41655,1077.09678 C1124.99777,1077.67764 1125.65825,1078.3201 1126.39799,1079.02416 L1122.11809,1083.25297 C1121.37835,1082.43889 1120.72668,1081.74362 1120.16307,1081.16277 C1119.59946,1080.58191 1119.06228,1080.04506 1118.55151,1079.55221 C1118.04074,1079.05937 1117.51235,1078.55772 1116.96636,1078.04727 C1116.42036,1077.53682 1115.7775,1076.92956 1115.03776,1076.2255 L1119.15915,1072.10671 Z M1199.24566,1069.29632 L1199.24566,1074.99007 L1170.1121,1074.99007 L1170.1121,1069.29632 L1199.24566,1069.29632 Z M1199.24566,1061.32722 L1199.24566,1066.91115 L1170.1121,1066.91115 L1170.1121,1061.32722 L1199.24566,1061.32722 Z M1143.25339,1051.30153 L1147.42761,1055.42472 C1146.75832,1056.05398 1146.13307,1056.65244 1145.55185,1057.22009 C1144.97063,1057.77895 1144.3806,1058.3378 1143.78177,1058.87905 C1143.18294,1059.4291 1142.55768,1059.98796 1141.90601,1060.56881 C1141.25434,1061.14967 1140.52341,1061.79213 1139.71322,1062.49619 L1135.64468,1058.00777 C1136.45487,1057.37411 1137.18579,1056.78445 1137.83747,1056.2388 C1138.48914,1055.69315 1139.10558,1055.1651 1139.6868,1054.65905 C1140.26803,1054.1486 1140.84044,1053.62495 1141.40405,1053.0969 C1141.96766,1052.56885 1142.5841,1051.9704 1143.25339,1051.30153 Z M1119.05347,1050.87909 C1119.72275,1051.47755 1120.34801,1052.0232 1120.92923,1052.51605 C1121.51045,1053.00889 1122.08286,1053.51494 1122.64647,1054.02099 C1123.21008,1054.53144 1123.80011,1055.07269 1124.41655,1055.63154 C1125.033,1056.1948 1125.71109,1056.81526 1126.45082,1057.47972 L1122.32944,1061.80973 C1121.55448,1061.03526 1120.8852,1060.36639 1120.32159,1059.80754 C1119.75798,1059.23989 1119.21198,1058.72504 1118.6836,1058.24539 C1118.15522,1057.77015 1117.60922,1057.2861 1117.04562,1056.79325 C1116.48201,1056.30041 1115.83034,1055.72395 1115.0906,1055.05509 L1119.05347,1050.87909 Z M1108.22163,1048.8241 C1108.64433,1049.34775 1109.16391,1049.98141 1109.78036,1050.72068 C1110.3968,1051.45995 1111.02206,1052.23442 1111.65611,1053.0441 C1112.29017,1053.85377 1112.91543,1054.65025 1113.53187,1055.42472 C1114.14832,1056.1948 1114.68551,1056.90326 1115.14344,1057.53252 L1109.54259,1061.70412 C1109.11988,1061.14087 1108.6003,1060.4456 1107.98386,1059.61832 C1107.36741,1058.79104 1106.73335,1057.95936 1106.08168,1057.11008 C1105.43001,1056.2652 1104.79595,1055.44673 1104.1795,1054.65905 C1103.56306,1053.86258 1103.04348,1053.18931 1102.62077,1052.62166 L1108.22163,1048.8241 Z M1186.39107,1048.20833 C1186.56668,1048.77068 1186.80375,1049.49997 1187.10228,1050.39621 C1187.40082,1051.28806 1187.70814,1052.19748 1188.02423,1053.11129 L1201.45833,1053.11129 L1201.45833,1059.2268 L1167.89942,1059.2268 L1167.89942,1053.11129 L1180.91206,1053.11129 L1179.54231,1049.15729 L1186.39107,1048.20833 Z" id="形状结合"></path>
        </g>
    </g>
</svg>