<?xml version="1.0" encoding="UTF-8"?>
<svg width="150px" height="150px" viewBox="0 0 150 150" version="1.1" xmlns="http://www.w3.org/2000/svg" xmlns:xlink="http://www.w3.org/1999/xlink">
    <title>编组 3备份 2</title>
    <g id="Page-1" stroke="none" stroke-width="1" fill="none" fill-rule="evenodd">
        <g id="公安版" transform="translate(-1089.000000, -1105.000000)">
            <g id="编组-3备份-2" transform="translate(1089.000000, 1105.000000)">
                <rect id="Rectangle" fill="#EFF5FE" x="0" y="0" width="150" height="150" rx="14"></rect>
                <path d="M43.8477,51.315 C56.0367,51.315 65.9967,60.855 66.6702,72.876 C66.6942,73.1325 66.7077,73.3935 66.7077,73.656 L66.7077,73.656 L66.7077,85.545 C66.7077,90.213 62.8887,94.032 58.2222,94.032 L58.2222,94.032 L55.1832,94.032 C51.8412,95.943 47.9727,97.035 43.8477,97.035 C39.7227,97.035 35.8527,95.943 32.5122,94.032 L32.5122,94.032 L29.4732,94.032 C24.8052,94.032 20.9862,90.213 20.9862,85.545 L20.9862,85.545 L20.9862,73.656 C20.9862,73.3935 21.0012,73.1325 21.0252,72.876 C21.6987,60.855 31.6587,51.315 43.8477,51.315 Z M34.62915,70.23 C31.90665,70.23 29.70165,72.4365 29.70165,75.1575 C29.70165,77.8785 31.90665,80.085 34.62915,80.085 C37.35015,80.085 39.55665,77.8785 39.55665,75.1575 C39.55665,72.4365 37.35015,70.23 34.62915,70.23 Z" id="形状结合" fill="#498BE8" opacity="0.602675327"></path>
                <path d="M57.99315,75.1575 C57.99315,77.8785 55.78665,80.085 53.06565,80.085 C50.34315,80.085 48.13815,77.8785 48.13815,75.1575 C48.13815,72.4365 50.34315,70.23 53.06565,70.23 C55.78665,70.23 57.99315,72.4365 57.99315,75.1575" id="Fill-7" fill="#EAF6FF"></path>
                <path d="M106.1526,51.315 C118.3416,51.315 128.3016,60.855 128.9751,72.876 C128.9991,73.1325 129.0126,73.3935 129.0126,73.656 L129.0126,73.656 L129.0126,85.545 C129.0126,90.213 125.1936,94.032 120.5271,94.032 L120.5271,94.032 L117.4881,94.032 C114.1461,95.943 110.2776,97.035 106.1526,97.035 C102.0276,97.035 98.1576,95.943 94.8186,94.032 L94.8186,94.032 L91.7781,94.032 C87.1116,94.032 83.2926,90.213 83.2926,85.545 L83.2926,85.545 L83.2926,73.656 C83.2926,73.3935 83.3061,73.1325 83.3301,72.876 C84.0051,60.855 93.9636,51.315 106.1526,51.315 Z M115.3713,70.23 C112.6488,70.23 110.4438,72.4365 110.4438,75.1575 C110.4438,77.8785 112.6488,80.085 115.3713,80.085 C118.0923,80.085 120.2988,77.8785 120.2988,75.1575 C120.2988,72.4365 118.0923,70.23 115.3713,70.23 Z" id="形状结合" fill="#498BE8" opacity="0.602675327"></path>
                <path d="M101.8623,75.1575 C101.8623,77.8785 99.6558,80.085 96.9348,80.085 C94.2123,80.085 92.0073,77.8785 92.0073,75.1575 C92.0073,72.4365 94.2123,70.23 96.9348,70.23 C99.6558,70.23 101.8623,72.4365 101.8623,75.1575" id="Fill-14" fill="#EAF6FF"></path>
                <path d="M108.578467,72.631 C107.574133,54.7170667 92.7314667,40.5 74.5660667,40.5 C56.4022,40.5 41.5595333,54.7170667 40.5552,72.631 C40.5199333,73.0143333 40.5,73.4007333 40.5,73.7932667 L40.5,91.5109333 C40.5,98.4676667 46.1902,104.157867 53.1454,104.157867 L57.6748667,104.157867 C62.6536,107.0068 68.4204667,108.633667 74.5660667,108.633667 C80.7132,108.633667 86.4800667,107.0068 91.4588,104.157867 L95.9882667,104.157867 C102.941933,104.157867 108.633667,98.4676667 108.633667,91.5109333 L108.633667,73.7932667 C108.633667,73.4007333 108.6122,73.0143333 108.578467,72.631" id="Fill-21" fill="#498BE8"></path>
                <path d="M67.4544667,76.9764667 C67.4544667,81.0321333 64.1654667,84.3196 60.1113333,84.3196 C56.0541333,84.3196 52.7666667,81.0321333 52.7666667,76.9764667 C52.7666667,72.9208 56.0541333,69.6333333 60.1113333,69.6333333 C64.1654667,69.6333333 67.4544667,72.9208 67.4544667,76.9764667" id="Fill-23" fill="#F0F3FF"></path>
                <path d="M95.0529333,76.9764667 C95.0529333,81.0321333 91.7654667,84.3196 87.7098,84.3196 C83.6541333,84.3196 80.3666667,81.0321333 80.3666667,76.9764667 C80.3666667,72.9208 83.6541333,69.6333333 87.7098,69.6333333 C91.7654667,69.6333333 95.0529333,72.9208 95.0529333,76.9764667" id="Fill-25" fill="#F0F3FF"></path>
            </g>
        </g>
    </g>
</svg>