<?xml version="1.0" encoding="UTF-8"?>
<svg width="44px" height="44px" viewBox="0 0 44 44" version="1.1" xmlns="http://www.w3.org/2000/svg" xmlns:xlink="http://www.w3.org/1999/xlink">
    <title>分组</title>
    <g id="页面-1" stroke="none" stroke-width="1" fill="none" fill-rule="evenodd">
        <g id="公安版" transform="translate(-178.000000, -1472.000000)">
            <g id="分组" transform="translate(178.000000, 1472.000000)">
                <rect id="Rectangle" fill="#EFF5FE" x="0" y="0" width="44" height="44" rx="10"></rect>
                <g id="Group" transform="translate(8.800000, 10.560000)" fill="#2775E3">
                    <path d="M11.5832558,0 L14.8167442,0 C15.7887653,-1.7855739e-16 16.5767442,0.78797884 16.5767442,1.76 L16.5767442,4.99348837 C16.5767442,5.96550953 15.7887653,6.75348837 14.8167442,6.75348837 L11.5832558,6.75348837 C10.6112347,6.75348837 9.82325581,5.96550953 9.82325581,4.99348837 L9.82325581,1.76 C9.82325581,0.78797884 10.6112347,1.7855739e-16 11.5832558,0 Z" id="Rectangle-Copy"></path>
                    <path d="M11.5832558,15.9627907 L14.8167442,15.9627907 C15.7887653,15.9627907 16.5767442,16.7507695 16.5767442,17.7227907 L16.5767442,20.9562791 C16.5767442,21.9283002 15.7887653,22.7162791 14.8167442,22.7162791 L11.5832558,22.7162791 C10.6112347,22.7162791 9.82325581,21.9283002 9.82325581,20.9562791 L9.82325581,17.7227907 C9.82325581,16.7507695 10.6112347,15.9627907 11.5832558,15.9627907 Z" id="Rectangle-Copy-2"></path>
                    <rect id="Rectangle-Copy-3" x="0" y="15.9627907" width="6.75348837" height="6.75348837" rx="1.76"></rect>
                    <rect id="Rectangle-Copy-4" x="19.6465116" y="15.9627907" width="6.75348837" height="6.75348837" rx="1.76"></rect>
                    <path d="M13.0668595,4.91162791 C13.5552194,4.91162791 13.9511133,5.30752182 13.9511133,5.7958817 L13.950814,10.2166279 L22.7936513,10.2171507 L22.7936513,10.2171507 C23.2820112,10.2171507 23.6779051,10.6130446 23.6779051,11.1014045 L23.6779051,16.4069273 C23.6779051,16.8952872 23.2820112,17.2911811 22.7936513,17.2911811 C22.3052914,17.2911811 21.9093975,16.8952872 21.9093975,16.4069273 L21.908814,11.9856279 L13.950814,11.9856279 L13.9511133,16.8490542 C13.9511133,17.337414 13.5552194,17.733308 13.0668595,17.733308 C12.5784996,17.733308 12.1826057,17.337414 12.1826057,16.8490542 L12.181814,11.9856279 L4.22381395,11.9856279 L4.22432155,16.4069273 C4.22432155,16.8952872 3.82842764,17.2911811 3.34006775,17.2911811 C2.85170786,17.2911811 2.45581395,16.8952872 2.45581395,16.4069273 L2.45581395,11.1014045 C2.45581395,10.6130446 2.85170786,10.2171507 3.34006775,10.2171507 L12.181814,10.2166279 L12.1826057,5.7958817 C12.1826057,5.30752182 12.5784996,4.91162791 13.0668595,4.91162791 Z" id="Combined-Shape" opacity="0.596976902"></path>
                </g>
            </g>
        </g>
    </g>
</svg>