<?xml version="1.0" encoding="UTF-8"?>
<svg width="260px" height="260px" viewBox="0 0 260 260" version="1.1" xmlns="http://www.w3.org/2000/svg" xmlns:xlink="http://www.w3.org/1999/xlink">
    <title>编组 2备份 3</title>
    <g id="页面-1" stroke="none" stroke-width="1" fill="none" fill-rule="evenodd">
        <g id="公安版" transform="translate(-295.000000, -1243.000000)">
            <g id="编组-2备份-3" transform="translate(295.000000, 1243.000000)">
                <rect id="Rectangle" fill="#EFF5FE" x="0" y="0" width="260" height="260" rx="10"></rect>
                <path d="M129.896598,56.0467932 C169.4505,56.0467932 201.769938,87.0044922 203.95663,126.011306 C204.033409,126.845898 204.078612,127.689133 204.078612,128.543003 L204.078612,128.543003 L204.078612,167.124045 C204.078612,182.270021 191.686691,194.661609 176.541379,194.661609 L176.541379,194.661609 L166.680159,194.661609 C155.838433,200.864384 143.281987,204.411152 129.896598,204.411152 C116.510878,204.411152 103.954431,200.864384 93.1127057,194.661609 L93.1127057,194.661609 L83.2514848,194.661609 C68.1058408,194.661609 55.7142525,182.270021 55.7142525,167.124045 L55.7142525,167.124045 L55.7142525,128.543003 C55.7142525,127.689133 55.759123,126.845898 55.8362339,126.011306 C58.0229262,87.0044922 90.3426961,56.0467932 129.896598,56.0467932 Z M99.9827549,117.426004 C91.1512304,117.426004 83.9922148,124.585353 83.9922148,133.416545 C83.9922148,142.247737 91.1512304,149.407085 99.9827549,149.407085 C108.813947,149.407085 115.973295,142.247737 115.973295,133.416545 C115.973295,124.585353 108.813947,117.426004 99.9827549,117.426004 Z M159.810342,117.426004 C150.978818,117.426004 143.819469,124.585353 143.819469,133.416545 C143.819469,142.247737 150.978818,149.407085 159.810342,149.407085 C168.641534,149.407085 175.80055,142.247737 175.80055,133.416545 C175.80055,124.585353 168.641534,117.426004 159.810342,117.426004 Z" id="形状结合" fill="#498BE8"></path>
            </g>
        </g>
    </g>
</svg>