<?xml version="1.0" encoding="UTF-8"?>
<svg width="101px" height="52px" viewBox="0 0 101 52" version="1.1" xmlns="http://www.w3.org/2000/svg" xmlns:xlink="http://www.w3.org/1999/xlink">
    <title>形状结合备份</title>
    <g id="页面-1" stroke="none" stroke-width="1" fill="none" fill-rule="evenodd" opacity="0.200763081">
        <g id="公安版" transform="translate(-1236.000000, -1048.000000)" fill="#2274E8">
            <path d="M1333.30516,1077.27237 C1333.82233,1077.27237 1334.24158,1077.69162 1334.24158,1078.20879 L1334.24158,1078.20879 L1334.24158,1093.94568 L1334.24158,1093.94568 L1334.23528,1094.05489 C1334.18119,1094.52061 1333.78539,1094.8821 1333.30516,1094.8821 L1333.30516,1094.8821 L1316.83124,1094.88201 L1306.23985,1099.46961 C1306.12236,1099.5205 1305.99569,1099.54676 1305.86766,1099.54676 C1305.35049,1099.54676 1304.93124,1099.12751 1304.93124,1098.61034 L1304.93124,1098.61034 L1304.93124,1078.20879 C1304.93124,1077.69162 1305.35049,1077.27237 1305.86766,1077.27237 L1305.86766,1077.27237 Z M1269.74643,1048.92531 L1269.74643,1052.62166 C1269.74643,1054.02979 1269.66717,1055.38952 1269.50866,1056.68764 C1269.35014,1057.99457 1269.09476,1059.22228 1268.7425,1060.38399 C1269.86972,1060.94725 1271.13784,1061.58531 1272.54686,1062.28497 C1273.95588,1062.98904 1275.3649,1063.70191 1276.77392,1064.41918 C1278.18294,1065.14525 1279.53031,1065.83171 1280.81604,1066.48297 C1282.10177,1067.13864 1283.20257,1067.68869 1284.11843,1068.14633 L1280.8953,1073.63805 C1280.01466,1073.11 1278.9667,1072.50274 1277.75142,1071.81628 C1276.53614,1071.13421 1275.25041,1070.42135 1273.89423,1069.68208 C1272.53805,1068.94281 1271.19948,1068.22114 1269.87852,1067.51707 C1268.55757,1066.8086 1267.35109,1066.19255 1266.2591,1065.6689 C1265.8364,1066.26295 1265.37847,1066.8174 1264.88531,1067.32785 C1264.39215,1067.8427 1263.84616,1068.30475 1263.24732,1068.72719 L1269.64075,1068.72719 L1269.64075,1074.1661 C1269.64075,1074.65895 1269.63195,1075.12539 1269.61433,1075.56984 C1269.59672,1076.00548 1269.5703,1076.45432 1269.53508,1076.91196 C1269.64075,1078.56652 1269.95778,1080.10667 1270.48616,1081.5324 C1271.01455,1082.95814 1271.75428,1084.19905 1272.70537,1085.25516 C1273.65646,1086.31126 1274.84532,1087.13853 1276.27195,1087.73699 C1277.69858,1088.33985 1279.39822,1088.63468 1281.37084,1088.63468 L1283.00883,1088.63468 L1283.00883,1094.76006 L1281.00098,1094.76006 C1277.23185,1094.76006 1274.16723,1094.144 1271.80712,1092.91188 C1269.44701,1091.68417 1267.61529,1090.02521 1266.31194,1087.94821 C1264.93815,1090.02521 1263.0712,1091.68417 1260.71109,1092.91188 C1258.35098,1094.144 1255.37443,1094.76006 1251.78142,1094.76006 L1249.72073,1094.76006 L1249.72073,1088.8987 C1249.22758,1089.25073 1248.72561,1089.62917 1248.21484,1090.03401 C1247.70407,1090.43885 1247.16688,1090.87009 1246.60328,1091.33213 C1246.00444,1091.82058 1245.37919,1092.10661 1244.72752,1092.17261 C1244.07585,1092.24302 1243.48582,1092.14621 1242.95744,1091.88218 C1242.42906,1091.61816 1241.98874,1091.20012 1241.63648,1090.64127 C1241.28423,1090.08241 1241.1081,1089.42675 1241.1081,1088.68748 L1241.1081,1069.73488 L1236.45833,1069.73488 L1236.45833,1063.39388 L1241.68932,1063.39388 C1242.74608,1063.39388 1243.63553,1063.47749 1244.35765,1063.6315 C1245.07977,1063.79432 1245.67861,1064.06274 1246.15415,1064.44998 C1246.6297,1064.83722 1246.97314,1065.37407 1247.1845,1066.06493 C1247.39585,1066.7514 1247.50153,1067.63588 1247.50153,1068.72719 L1247.50153,1082.66771 L1250.51331,1080.23868 L1252.36265,1086.89651 L1249.98492,1088.63468 L1251.4644,1088.63468 C1253.5427,1088.63468 1255.32159,1088.27384 1256.80106,1087.55217 C1258.28053,1086.8305 1259.49581,1085.85801 1260.4469,1084.6215 C1261.39799,1083.38938 1262.09369,1081.95484 1262.53401,1080.32229 C1262.97433,1078.68093 1263.19449,1076.94717 1263.19449,1075.11659 L1263.19449,1068.77999 C1261.82069,1069.80089 1260.20913,1070.58416 1258.35979,1071.13421 C1256.51045,1071.67547 1254.38811,1071.94829 1251.99278,1071.94829 L1249.61506,1071.94829 L1249.61506,1065.7173 L1251.62291,1065.7173 C1253.70121,1065.7173 1255.46249,1065.41807 1256.90673,1064.81962 C1258.35098,1064.22556 1259.53103,1063.38508 1260.4469,1062.31138 C1261.36276,1061.24208 1262.02324,1059.96155 1262.42833,1058.48301 C1262.83342,1057.00447 1263.03597,1055.38952 1263.03597,1053.62495 L1263.03597,1048.92531 L1269.74643,1048.92531 Z M1300.73943,1048.94641 L1300.73943,1094.76006 L1294.20677,1094.76006 L1294.20677,1072.19591 C1293.71506,1072.37165 1293.22336,1072.48587 1292.73165,1072.53859 C1292.23995,1072.59131 1291.73068,1072.61767 1291.20385,1072.61767 L1288.67508,1072.61767 L1288.67508,1066.55488 L1290.51898,1066.55488 C1291.46727,1066.55488 1292.30141,1066.14191 1293.02141,1065.32035 C1293.74141,1064.49001 1294.10141,1063.09733 1294.10141,1061.12472 L1294.10141,1048.94641 L1300.73943,1048.94641 Z M1327.74923,1083.30485 L1311.76573,1083.30485 C1311.45543,1083.30485 1311.20388,1083.5564 1311.20388,1083.8667 L1311.20388,1083.8667 L1311.20388,1090.5383 C1311.20388,1090.59903 1311.21865,1090.65886 1311.24692,1090.71262 C1311.3432,1090.89572 1311.56968,1090.9661 1311.75277,1090.86982 L1311.75277,1090.86982 L1315.17535,1089.07012 L1327.74923,1089.07003 C1328.05953,1089.07003 1328.31108,1088.81848 1328.31108,1088.50818 L1328.31108,1088.50818 L1328.31108,1083.8667 C1328.31108,1083.5564 1328.05953,1083.30485 1327.74923,1083.30485 L1327.74923,1083.30485 Z M1277.61933,1072.0011 L1282.11058,1075.69745 C1281.51175,1076.40151 1280.94814,1077.05718 1280.41975,1077.65123 C1279.89137,1078.24969 1279.36299,1078.85255 1278.83461,1079.4466 C1278.30622,1080.04506 1277.75142,1080.66552 1277.1702,1081.29478 C1276.58898,1081.92844 1275.94612,1082.63251 1275.24161,1083.40698 L1270.75036,1079.34099 C1271.49009,1078.63693 1272.15057,1077.99447 1272.73179,1077.41801 C1273.31301,1076.83276 1273.86781,1076.2651 1274.39619,1075.69745 C1274.92458,1075.13859 1275.44415,1074.55334 1275.95492,1073.95488 C1276.46569,1073.36083 1277.02049,1072.70516 1277.61933,1072.0011 Z M1254.15915,1072.10671 C1254.82843,1072.74037 1255.44488,1073.32562 1256.00848,1073.84927 C1256.57209,1074.37732 1257.1357,1074.90537 1257.69931,1075.43342 C1258.26292,1075.96587 1258.83533,1076.51593 1259.41655,1077.09678 C1259.99777,1077.67764 1260.65825,1078.3201 1261.39799,1079.02416 L1257.11809,1083.25297 C1256.37835,1082.43889 1255.72668,1081.74362 1255.16307,1081.16277 C1254.59946,1080.58191 1254.06228,1080.04506 1253.55151,1079.55221 C1253.04074,1079.05937 1252.51235,1078.55772 1251.96636,1078.04727 C1251.42036,1077.53682 1250.7775,1076.92956 1250.03776,1076.2255 L1254.15915,1072.10671 Z M1334.24566,1069.29632 L1334.24566,1074.99007 L1305.1121,1074.99007 L1305.1121,1069.29632 L1334.24566,1069.29632 Z M1334.24566,1061.32722 L1334.24566,1066.91115 L1305.1121,1066.91115 L1305.1121,1061.32722 L1334.24566,1061.32722 Z M1278.25339,1051.30153 L1282.42761,1055.42472 C1281.75832,1056.05398 1281.13307,1056.65244 1280.55185,1057.22009 C1279.97063,1057.77895 1279.3806,1058.3378 1278.78177,1058.87905 C1278.18294,1059.4291 1277.55768,1059.98796 1276.90601,1060.56881 C1276.25434,1061.14967 1275.52341,1061.79213 1274.71322,1062.49619 L1270.64468,1058.00777 C1271.45487,1057.37411 1272.18579,1056.78445 1272.83747,1056.2388 C1273.48914,1055.69315 1274.10558,1055.1651 1274.6868,1054.65905 C1275.26803,1054.1486 1275.84044,1053.62495 1276.40405,1053.0969 C1276.96766,1052.56885 1277.5841,1051.9704 1278.25339,1051.30153 Z M1254.05347,1050.87909 C1254.72275,1051.47755 1255.34801,1052.0232 1255.92923,1052.51605 C1256.51045,1053.00889 1257.08286,1053.51494 1257.64647,1054.02099 C1258.21008,1054.53144 1258.80011,1055.07269 1259.41655,1055.63154 C1260.033,1056.1948 1260.71109,1056.81526 1261.45082,1057.47972 L1257.32944,1061.80973 C1256.55448,1061.03526 1255.8852,1060.36639 1255.32159,1059.80754 C1254.75798,1059.23989 1254.21198,1058.72504 1253.6836,1058.24539 C1253.15522,1057.77015 1252.60922,1057.2861 1252.04562,1056.79325 C1251.48201,1056.30041 1250.83034,1055.72395 1250.0906,1055.05509 L1254.05347,1050.87909 Z M1243.22163,1048.8241 C1243.64433,1049.34775 1244.16391,1049.98141 1244.78036,1050.72068 C1245.3968,1051.45995 1246.02206,1052.23442 1246.65611,1053.0441 C1247.29017,1053.85377 1247.91543,1054.65025 1248.53187,1055.42472 C1249.14832,1056.1948 1249.68551,1056.90326 1250.14344,1057.53252 L1244.54259,1061.70412 C1244.11988,1061.14087 1243.6003,1060.4456 1242.98386,1059.61832 C1242.36741,1058.79104 1241.73335,1057.95936 1241.08168,1057.11008 C1240.43001,1056.2652 1239.79595,1055.44673 1239.1795,1054.65905 C1238.56306,1053.86258 1238.04348,1053.18931 1237.62077,1052.62166 L1243.22163,1048.8241 Z M1321.39107,1048.20833 C1321.56668,1048.77068 1321.80375,1049.49997 1322.10228,1050.39621 C1322.40082,1051.28806 1322.70814,1052.19748 1323.02423,1053.11129 L1336.45833,1053.11129 L1336.45833,1059.2268 L1302.89942,1059.2268 L1302.89942,1053.11129 L1315.91206,1053.11129 L1314.54231,1049.15729 L1321.39107,1048.20833 Z" id="形状结合备份"></path>
        </g>
    </g>
</svg>