<?xml version="1.0" encoding="UTF-8"?>
<svg width="70px" height="70px" viewBox="0 0 70 70" version="1.1" xmlns="http://www.w3.org/2000/svg" xmlns:xlink="http://www.w3.org/1999/xlink">
    <title>椭圆形 + 形状结合 + 三角形 + 形状结合 蒙版备份 2</title>
    <defs>
        <rect id="path-1" x="0" y="0" width="70" height="70" rx="16"></rect>
    </defs>
    <g id="页面-1" stroke="none" stroke-width="1" fill="none" fill-rule="evenodd">
        <g id="公安版" transform="translate(-772.000000, -1039.000000)">
            <g id="椭圆形-+-形状结合-+-三角形-+-形状结合-蒙版备份-2" transform="translate(772.000000, 1039.000000)">
                <mask id="mask-2" fill="white">
                    <use xlink:href="#path-1"></use>
                </mask>
                <use id="蒙版" fill="#2274E8" xlink:href="#path-1"></use>
                <path d="M59.222749,36.64287 C59.7399174,36.64287 60.1591652,37.0621178 60.1591652,37.5792862 L60.1591652,37.5792862 L60.1591652,45.0960155 L60.1591652,45.0960155 L60.1528697,45.2052264 C60.098775,45.6709421 59.7029768,46.0324339 59.222749,46.0324267 L59.222749,46.0324267 L50.8759169,46.0323822 L45.8394069,48.2139208 C45.721922,48.2648088 45.5952496,48.291064 45.4672172,48.291064 C44.9500488,48.291064 44.530801,47.8718162 44.530801,47.3546478 L44.530801,47.3546478 L44.530801,37.5792862 C44.530801,37.0621178 44.9500488,36.64287 45.4672172,36.64287 L45.4672172,36.64287 Z M25.7701498,21.5281257 L25.7701498,23.4990315 C25.7701498,24.2498528 25.7278896,24.9748646 25.643369,25.6670279 C25.5588484,26.3638839 25.4226764,27.0185062 25.234853,27.6379338 L25.6044895,27.8228611 L25.6044895,27.8228611 L26.3978558,28.220083 C26.6743319,28.3583468 26.9628288,28.5023168 27.2633463,28.6515425 C28.0146401,29.0269531 28.7659339,29.4070564 29.5172278,29.789506 C30.2685216,30.1766482 30.9869463,30.5426736 31.6725019,30.8899284 C32.3580575,31.2395296 32.9450058,31.5328191 33.4333468,31.776836 L31.7147622,34.705039 C31.2452036,34.423481 30.6864288,34.0996894 30.0384379,33.733664 C29.3904469,33.3699849 28.7048913,32.9898817 27.981771,32.5957005 C27.2586507,32.2015193 26.5449216,31.8167234 25.8405836,31.4413128 C25.1362457,31.0635558 24.4929503,30.7350715 23.9106976,30.4558599 C23.6853095,30.7726126 23.441139,31.0682485 23.1781862,31.3404212 C22.9152333,31.6149402 22.624107,31.8613034 22.3048071,32.0865498 L25.7138028,32.0865498 L25.7138028,34.986597 C25.7138028,35.2493844 25.7091072,35.498094 25.699716,35.7350719 C25.6903249,35.9673573 25.6762381,36.2066816 25.6574558,36.4506985 C25.7138028,37.3329135 25.8828439,38.1541242 26.1645791,38.9143308 C26.4463143,39.6745373 26.8407435,40.3361986 27.3478669,40.8993145 C27.8549902,41.4624305 28.4888943,41.903538 29.2495793,42.222637 C30.0102643,42.5440824 30.9165125,42.7012856 31.9683239,42.7012856 L32.8417029,42.7012856 L32.8417029,45.9673581 L31.7711092,45.9673581 C29.7613983,45.9673581 28.1273342,45.6388738 26.868917,44.9819052 C25.6104999,44.3272829 24.6338179,43.4427216 23.9388711,42.3352602 C23.2063597,43.4427216 22.2108954,44.3272829 20.9524782,44.9819052 C19.6940611,45.6388738 18.1069529,45.9673581 16.1911536,45.9673581 L15.0923864,45.9673581 L15.0923864,42.8420646 C14.8294336,43.0297699 14.5617852,43.2315531 14.2894411,43.4474142 C14.0170971,43.6632753 13.7306664,43.8932143 13.4301488,44.1395776 C13.110849,44.4000187 12.7774623,44.5525293 12.4299889,44.587724 C12.0825155,44.6252651 11.7679113,44.5736461 11.4861761,44.4328671 C11.2044409,44.2920882 10.9696616,44.0691881 10.7818381,43.7712059 C10.5940147,43.4732237 10.5001029,43.1236225 10.5001029,42.7294414 L10.5001029,32.6238563 L8.02083333,32.6238563 L8.02083333,29.2428142 L10.8100116,29.2428142 C11.373482,29.2428142 11.8477362,29.2873943 12.2327743,29.3695153 C12.6178124,29.456329 12.9371123,29.5994544 13.1906739,29.8059302 C13.4442356,30.0124061 13.6273635,30.2986567 13.7400575,30.6670284 C13.8527516,31.0330537 13.9090986,31.5046633 13.9090986,32.0865498 L13.9090986,39.5196804 L15.5149892,38.2245137 L16.5010623,41.7744906 L15.233254,42.7012856 L16.0221125,42.7012856 C17.1302709,42.7012856 18.0787794,42.5088876 18.8676379,42.1240917 C19.6564964,41.7392958 20.3044873,41.2207599 20.8116106,40.5614449 C21.318734,39.9044763 21.6896853,39.1395772 21.9244646,38.2690937 C22.1592439,37.3939177 22.2766336,36.469469 22.2766336,35.4934014 L22.2766336,32.1147056 C21.5441221,32.659051 20.6848298,33.0766954 19.6987567,33.3699849 C18.7126835,33.6585819 17.5810472,33.8040535 16.3038477,33.8040535 L15.0360394,33.8040535 L15.0360394,30.4816693 L16.1066331,30.4816693 C17.2147915,30.4816693 18.1539087,30.3221198 18.9239849,30.0030208 C19.6940611,29.6862681 20.3232696,29.2381216 20.8116106,28.6656204 C21.2999516,28.0954655 21.6521206,27.4126874 21.8681176,26.6243251 C22.0841145,25.8359627 22.192113,24.9748646 22.192113,24.0339917 L22.192113,21.5281257 L25.7701498,21.5281257 Z M42.2957155,21.5393796 L42.2957155,45.9673581 L38.8124805,45.9673581 L38.8124805,33.9360868 C38.5503015,34.0297883 38.2881225,34.0906942 38.0259436,34.1188047 C37.7637646,34.1469151 37.4922221,34.1609703 37.211316,34.1609703 L35.862967,34.1609703 L35.862967,30.9282689 L36.8461381,30.9282689 C37.351769,30.9282689 37.7965369,30.7080704 38.1804419,30.270016 C38.5643468,29.8272764 38.7562993,29.0846921 38.7562993,28.0328929 L38.7562993,21.5393796 L42.2957155,21.5393796 Z M56.4351562,39.8594047 L48.4372423,39.8594047 C48.1269413,39.8594047 47.8753926,40.1109534 47.8753926,40.4212544 L47.8753926,40.4212544 L47.8753926,43.4268161 C47.8753926,43.4875554 47.8901635,43.5473835 47.9184322,43.6011435 C48.0147106,43.7842407 48.2411892,43.8546213 48.4242864,43.758343 L48.4242864,43.758343 L49.992994,42.9334667 L56.4351562,42.9334213 C56.7454557,42.9334151 56.997002,42.6818671 56.9970059,42.3715676 L56.9970059,42.3715676 L56.9970059,40.4212544 C56.9970059,40.1109534 56.7454572,39.8594047 56.4351562,39.8594047 L56.4351562,39.8594047 Z M29.9680041,33.8322093 L32.3627531,35.8031151 C32.0434532,36.1785258 31.7429357,36.5281269 31.4612005,36.8448796 C31.1794653,37.1639787 30.8977302,37.485424 30.615995,37.8021768 C30.3342598,38.1212758 30.0384379,38.4521064 29.7285292,38.7876297 C29.4186205,39.1254993 29.0758426,39.5009099 28.7001957,39.9138616 L26.3054467,37.7458652 C26.6998759,37.3704545 27.0520449,37.0278923 27.3619536,36.7205249 C27.6718623,36.4084648 27.9676843,36.10579 28.2494194,35.8031151 C28.5311546,35.5051329 28.8081942,35.1930728 29.0805382,34.8739738 C29.3528822,34.5572211 29.6487042,34.2076199 29.9680041,33.8322093 Z M17.458962,33.8885209 C17.8158265,34.2263905 18.1445176,34.5384505 18.4450351,34.8176622 C18.7455526,35.0992202 19.0460701,35.3807782 19.3465877,35.6623361 C19.6471052,35.9462404 19.9523183,36.23953 20.262227,36.5492438 C20.5721357,36.8589575 20.9243047,37.2015197 21.318734,37.5769304 L19.036679,39.8317405 C18.6422497,39.397672 18.2947763,39.026954 17.9942588,38.7172402 C17.6937413,38.4075264 17.4073105,38.1212758 17.1349665,37.8584884 C16.8626225,37.5957009 16.5808873,37.3282208 16.2897609,37.0560481 C15.9986346,36.7838754 15.6558568,36.4600837 15.2614275,36.0846731 L17.458962,33.8885209 Z M60.1613404,32.3900122 L60.1613404,35.4259405 L44.6272358,35.4259405 L44.6272358,32.3900122 L60.1613404,32.3900122 Z M60.1613404,28.1408672 L60.1613404,31.1182321 L44.6272358,31.1182321 L44.6272358,28.1408672 L60.1613404,28.1408672 Z M30.3060863,22.7951366 L32.5317942,24.9936351 C32.1749297,25.3291584 31.841543,25.6482574 31.5316343,25.9509322 C31.2217256,26.2489144 30.9071213,26.5468966 30.5878215,26.8354935 C30.2685216,27.1287831 29.935135,27.4267653 29.5876616,27.7364791 C29.2401882,28.0461928 28.8504545,28.388755 28.4184606,28.7641657 L26.2490996,26.3709229 C26.6810936,26.0330533 27.0708273,25.7186469 27.4183007,25.4277036 C27.765774,25.1367604 28.0944651,24.8552024 28.4043738,24.585376 C28.7142825,24.3132033 29.0194956,24.0339917 29.3200131,23.7524337 C29.6205307,23.4708757 29.9492217,23.1517767 30.3060863,22.7951366 Z M17.4026149,22.5698902 C17.7594795,22.8889892 18.0928661,23.1799325 18.4027748,23.4427199 C18.7126835,23.7055074 19.0178966,23.9753337 19.3184142,24.2451601 C19.6189317,24.5173329 19.933536,24.8059298 20.262227,25.103912 C20.5909181,25.4042405 20.9524782,25.7350711 21.3469075,26.0893649 L19.149373,28.3981403 L18.6805657,27.929778 C18.4596853,27.7092618 18.2590899,27.5093556 18.0787794,27.3305663 C17.7782618,27.0278915 17.4871355,26.7533725 17.2054003,26.497624 C16.9236651,26.2442218 16.6325387,25.986127 16.3320212,25.7233395 C16.0315037,25.4605521 15.6840303,25.1531846 15.289601,24.7965445 L17.4026149,22.5698902 Z M11.6270437,21.4741604 C11.8524318,21.753372 12.1294714,22.0912416 12.4581625,22.4854228 C12.7868535,22.879604 13.1202401,23.2925557 13.4583224,23.7242779 C13.7964046,24.1560001 14.1297912,24.5806834 14.4584823,24.9936351 C14.7871733,25.4042405 15.0736041,25.7819974 15.3177746,26.1175207 L12.3313816,28.3418287 C12.1059935,28.0415002 11.8289539,27.6707822 11.5002628,27.2296747 C11.1715718,26.7885672 10.8334896,26.3451134 10.4860162,25.8922743 C10.1385428,25.4417815 9.80046057,25.0053667 9.47176952,24.585376 C9.14307848,24.1606928 8.86603888,23.8017063 8.64065074,23.4990315 L11.6270437,21.4741604 Z M53.3072328,21.1458333 C53.4008681,21.4456781 53.5272758,21.8345393 53.6864559,22.3124169 C53.845636,22.787952 54.0094979,23.2728572 54.1780415,23.7601049 L61.3411458,23.7601049 L61.3411458,27.0209168 L43.4474303,27.0209168 L43.4474303,23.7601049 L50.3858098,23.7601049 L49.6554541,21.6518214 L53.3072328,21.1458333 Z" id="形状结合" fill="#FFFFFF" mask="url(#mask-2)"></path>
            </g>
        </g>
    </g>
</svg>