<?xml version="1.0" encoding="UTF-8"?>
<svg width="44px" height="44px" viewBox="0 0 44 44" version="1.1" xmlns="http://www.w3.org/2000/svg" xmlns:xlink="http://www.w3.org/1999/xlink">
    <title>头像</title>
    <g id="头像" stroke="none" stroke-width="1" fill="none" fill-rule="evenodd">
        <rect fill="#EAF6FF" x="0" y="0" width="44" height="44" rx="4"></rect>
        <path d="M34.9446253,21.0019303 C34.5766723,14.3422304 29.1383054,9.05676957 22.4826007,9.05676957 C15.826896,9.05676957 10.3884732,14.3422304 10.0205201,21.0019303 C10.0075447,21.1444217 9.99999441,21.2883885 9.99999441,21.4341712 L9.99999441,28.0211784 C9.99999441,30.6070768 12.0851175,32.7227138 14.6336633,32.7227138 L16.2930034,32.7227138 C18.1173322,33.781724 20.2301958,34.3872699 22.4826007,34.3872699 C24.7349497,34.3872699 26.8478132,33.781724 28.6721421,32.7227138 L30.3314821,32.7227138 C32.8799721,32.7227138 34.965151,30.6070768 34.965151,28.0211784 L34.965151,21.4341712 C34.965151,21.2883885 34.9575448,21.1444217 34.9446253,21.0019303" id="Fill-1" fill="#61C7FF"></path>
        <path d="M20.1397371,22.2662393 C20.1397371,23.7740038 18.9350391,24.9963315 17.4490213,24.9963315 C15.9629474,24.9963315 14.7583054,23.7740038 14.7583054,22.2662393 C14.7583054,20.7584748 15.9629474,19.5361471 17.4490213,19.5361471 C18.9350391,19.5361471 20.1397371,20.7584748 20.1397371,22.2662393" id="Fill-4" fill="#EAF6FF"></path>
        <path d="M30.2068233,22.2662393 C30.2068233,23.7740038 29.0021812,24.9963315 27.5161633,24.9963315 C26.0300895,24.9963315 24.8253915,23.7740038 24.8253915,22.2662393 C24.8253915,20.7584748 26.0300895,19.5361471 27.5161633,19.5361471 C29.0021812,19.5361471 30.2068233,20.7584748 30.2068233,22.2662393" id="Fill-6" fill="#EAF6FF"></path>
        <path d="M32.8847763,21.7787382 L32.8847763,31.9383018 C34.1359508,31.0941352 34.9651454,29.6514594 34.9651454,28.0211784 L34.9651454,21.4341712 C34.9651454,21.2883885 34.9575951,21.1444217 34.9446197,21.0019303 C34.5888591,14.562919 29.4929978,9.40899744 23.1400336,9.07441785 L22.4825951,9.05676957 C22.4825951,9.05676957 32.8847763,12.101807 32.8847763,21.7787382" id="Fill-8" fill="#5BBDF2"></path>
    </g>
</svg>