<?xml version="1.0" encoding="UTF-8"?>
<svg width="260px" height="260px" viewBox="0 0 260 260" version="1.1" xmlns="http://www.w3.org/2000/svg" xmlns:xlink="http://www.w3.org/1999/xlink">
    <title>切片</title>
    <g id="页面-1" stroke="none" stroke-width="1" fill="none" fill-rule="evenodd">
        <g id="通讯录-群聊" transform="translate(-390.000000, -60.000000)">
            <g id="Page-1" transform="translate(390.000000, 60.000000)">
                <rect id="Rectangle" fill="#EAF6FF" x="0" y="0" width="260" height="260" rx="4.4"></rect>
                <g id="Group-11" opacity="0.5" transform="translate(36.376080, 88.944960)">
                    <path d="M79.1856,37.37344 C78.0182,16.53704 60.7542,0.00104 39.6266,0.00104 C18.499,0.00104 1.235,16.53704 0.0676,37.37344 C0.026,37.81804 0,38.27044 0,38.72544 L0,59.33304 C0,67.42424 6.6196,74.04384 14.7108,74.04384 L19.9784,74.04384 C25.7686,77.35624 32.4766,79.24904 39.6266,79.24904 C46.7766,79.24904 53.482,77.35624 59.2748,74.04384 L64.5424,74.04384 C72.631,74.04384 79.2506,67.42424 79.2506,59.33304 L79.2506,38.72544 C79.2506,38.27044 79.2272,37.81804 79.1856,37.37344" id="Fill-3" fill="#61C7FF"></path>
                    <path d="M32.18878,41.32804 C32.18878,46.04444 28.36418,49.86904 23.64778,49.86904 C18.92878,49.86904 15.10678,46.04444 15.10678,41.32804 C15.10678,36.61164 18.92878,32.78704 23.64778,32.78704 C28.36418,32.78704 32.18878,36.61164 32.18878,41.32804" id="Fill-5" fill="#EAF6FF"></path>
                    <path d="M64.14538,41.32804 C64.14538,46.04444 60.32078,49.86904 55.60438,49.86904 C50.88538,49.86904 47.06338,46.04444 47.06338,41.32804 C47.06338,36.61164 50.88538,32.78704 55.60438,32.78704 C60.32078,32.78704 64.14538,36.61164 64.14538,41.32804" id="Fill-7" fill="#EAF6FF"></path>
                    <path d="M72.64608,39.8034 L72.64608,71.5884 C76.61888,68.9468 79.25008,64.4358 79.25008,59.3346 L79.25008,38.7244 C79.25008,38.2694 79.22668,37.8196 79.18508,37.3724 C78.05668,17.2276 61.87948,1.1024 41.71388,0.0572 L39.62608,1.04966541e-14 C39.62608,1.04966541e-14 72.64608,9.529 72.64608,39.8034" id="Fill-9" fill="#5BBDF2"></path>
                </g>
                <g id="Group-20" opacity="0.5" transform="translate(144.373840, 88.944960)">
                    <path d="M79.183,37.37344 C78.0156,16.53704 60.7516,0.00104 39.624,0.00104 C18.4964,0.00104 1.235,16.53704 0.065,37.37344 C0.0234,37.81804 0,38.27044 0,38.72544 L0,59.33304 C0,67.42424 6.6196,74.04384 14.7082,74.04384 L19.9784,74.04384 C25.766,77.35624 32.474,79.24904 39.624,79.24904 C46.774,79.24904 53.4794,77.35624 59.2722,74.04384 L64.5398,74.04384 C72.6284,74.04384 79.248,67.42424 79.248,59.33304 L79.248,38.72544 C79.248,38.27044 79.2246,37.81804 79.183,37.37344" id="Fill-12" fill="#61C7FF"></path>
                    <path d="M32.18748,41.32804 C32.18748,46.04444 28.36288,49.86904 23.64648,49.86904 C18.92748,49.86904 15.10548,46.04444 15.10548,41.32804 C15.10548,36.61164 18.92748,32.78704 23.64648,32.78704 C28.36288,32.78704 32.18748,36.61164 32.18748,41.32804" id="Fill-14" fill="#EAF6FF"></path>
                    <path d="M64.14408,41.32804 C64.14408,46.04444 60.31948,49.86904 55.60308,49.86904 C50.88408,49.86904 47.06208,46.04444 47.06208,41.32804 C47.06208,36.61164 50.88408,32.78704 55.60308,32.78704 C60.31948,32.78704 64.14408,36.61164 64.14408,41.32804" id="Fill-16" fill="#EAF6FF"></path>
                    <path d="M72.64504,39.8034 L72.64504,71.5884 C76.61524,68.9468 79.24904,64.4358 79.24904,59.3346 L79.24904,38.7244 C79.24904,38.2694 79.22304,37.8196 79.18404,37.3724 C78.05304,17.2276 61.87584,1.1024 41.71284,0.0572 L39.62504,1.04966541e-14 C39.62504,1.04966541e-14 72.64504,9.529 72.64504,39.8034" id="Fill-18" fill="#5BBDF2"></path>
                </g>
                <g id="Group" transform="translate(70.200000, 70.200000)">
                    <path d="M118.002676,55.6937333 C116.261831,24.6429156 90.5345422,0 59.0478489,0 C27.5638133,0 1.83652444,24.6429156 0.09568,55.6937333 C0.0345511111,56.3581778 0,57.0279378 0,57.7083289 L0,88.4189511 C0,100.477289 9.86301333,110.340302 21.9186933,110.340302 L29.7697689,110.340302 C38.3995733,115.278453 48.3954756,118.098356 59.0478489,118.098356 C69.70288,118.098356 79.6987822,115.278453 88.3285867,110.340302 L96.1796622,110.340302 C108.232684,110.340302 118.098356,100.477289 118.098356,88.4189511 L118.098356,57.7083289 C118.098356,57.0279378 118.061147,56.3581778 118.002676,55.6937333" id="Fill-21" fill="#61C7FF"></path>
                    <path d="M46.7210756,63.2258756 C46.7210756,70.2556978 41.0201422,75.9539733 33.9929778,75.9539733 C26.9604978,75.9539733 21.2622222,70.2556978 21.2622222,63.2258756 C21.2622222,56.1960533 26.9604978,50.4977778 33.9929778,50.4977778 C41.0201422,50.4977778 46.7210756,56.1960533 46.7210756,63.2258756" id="Fill-23" fill="#EAF6FF"></path>
                    <path d="M94.5584178,63.2258756 C94.5584178,70.2556978 88.8601422,75.9539733 81.83032,75.9539733 C74.8004978,75.9539733 69.1022222,70.2556978 69.1022222,63.2258756 C69.1022222,56.1960533 74.8004978,50.4977778 81.83032,50.4977778 C88.8601422,50.4977778 94.5584178,56.1960533 94.5584178,63.2258756" id="Fill-25" fill="#EAF6FF"></path>
                    <path d="M107.679867,59.3136267 L107.679867,106.680542 C113.601396,102.747031 117.521618,96.0201956 117.521618,88.4189511 L117.521618,57.7083289 C117.521618,57.0279378 117.484409,56.3581778 117.425938,55.6937333 C115.740907,25.6714756 91.6348622,1.64250667 61.5807111,0.0823911111 L58.4711111,0 C58.4711111,0 107.679867,14.1978489 107.679867,59.3136267" id="Fill-27" fill="#5BBDF2"></path>
                </g>
            </g>
        </g>
    </g>
</svg>